<?xml version="1.0" encoding="UTF-8" standalone="no"?>
<!-- Created with Inkscape (http://www.inkscape.org/) -->

<svg
   xmlns:dc="http://purl.org/dc/elements/1.1/"
   xmlns:cc="http://creativecommons.org/ns#"
   xmlns:rdf="http://www.w3.org/1999/02/22-rdf-syntax-ns#"
   xmlns:svg="http://www.w3.org/2000/svg"
   xmlns="http://www.w3.org/2000/svg"
   version="1.1"
   width="695.14319"
   height="82.213501"
   id="svg5615">
  <defs
     id="defs5617">
    <clipPath
       id="clipPath6041">
      <path
         d="m 0,0 595.276,0 0,841.89 L 0,841.89 0,0 z"
         id="path6043" />
    </clipPath>
    <clipPath
       id="clipPath6013">
      <path
         d="m 0,0 595.276,0 0,841.89 L 0,841.89 0,0 z"
         id="path6015" />
    </clipPath>
    <clipPath
       id="clipPath5989">
      <path
         d="m 0,0 595.276,0 0,841.89 L 0,841.89 0,0 z"
         id="path5991" />
    </clipPath>
    <clipPath
       id="clipPath5973">
      <path
         d="m 0,0 595.276,0 0,841.89 L 0,841.89 0,0 z"
         id="path5975" />
    </clipPath>
    <clipPath
       id="clipPath5945">
      <path
         d="m 0,0 595.276,0 0,841.89 L 0,841.89 0,0 z"
         id="path5947" />
    </clipPath>
    <clipPath
       id="clipPath5929">
      <path
         d="m 0,0 595.276,0 0,841.89 L 0,841.89 0,0 z"
         id="path5931" />
    </clipPath>
    <clipPath
       id="clipPath5897">
      <path
         d="m 0,0 595.276,0 0,841.89 L 0,841.89 0,0 z"
         id="path5899" />
    </clipPath>
    <clipPath
       id="clipPath5869">
      <path
         d="m 0,0 595.276,0 0,841.89 L 0,841.89 0,0 z"
         id="path5871" />
    </clipPath>
    <clipPath
       id="clipPath5849">
      <path
         d="m 0,0 595.276,0 0,841.89 L 0,841.89 0,0 z"
         id="path5851" />
    </clipPath>
    <clipPath
       id="clipPath5833">
      <path
         d="m 0,0 595.276,0 0,841.89 L 0,841.89 0,0 z"
         id="path5835" />
    </clipPath>
    <clipPath
       id="clipPath5809">
      <path
         d="m 0,0 595.276,0 0,841.89 L 0,841.89 0,0 z"
         id="path5811" />
    </clipPath>
    <clipPath
       id="clipPath5785">
      <path
         d="m 0,0 595.276,0 0,841.89 L 0,841.89 0,0 z"
         id="path5787" />
    </clipPath>
    <clipPath
       id="clipPath5767">
      <path
         d="m 0,0 595.276,0 0,841.89 L 0,841.89 0,0 z"
         id="path5769" />
    </clipPath>
    <clipPath
       id="clipPath5751">
      <path
         d="m 0,0 595.276,0 0,841.89 L 0,841.89 0,0 z"
         id="path5753" />
    </clipPath>
    <clipPath
       id="clipPath5737">
      <path
         d="m 0,0 595.276,0 0,841.89 L 0,841.89 0,0 z"
         id="path5739" />
    </clipPath>
    <clipPath
       id="clipPath5717">
      <path
         d="m 0,0 595.276,0 0,841.89 L 0,841.89 0,0 z"
         id="path5719" />
    </clipPath>
    <clipPath
       id="clipPath5701">
      <path
         d="m 0,0 595.276,0 0,841.89 L 0,841.89 0,0 z"
         id="path5703" />
    </clipPath>
    <clipPath
       id="clipPath5677">
      <path
         d="m 0,0 595.276,0 0,841.89 L 0,841.89 0,0 z"
         id="path5679" />
    </clipPath>
    <clipPath
       id="clipPath5657">
      <path
         d="m 0,0 595.276,0 0,841.89 L 0,841.89 0,0 z"
         id="path5659" />
    </clipPath>
  </defs>
  <g
     transform="translate(-35.335101,-216.45884)"
     id="layer1">
    <g
       transform="matrix(1.25,0,0,-1.25,-99.190357,1010.6863)"
       id="g5631">
      <path
         d="m 473.15625,64.53125 c -4.33496,0 -7.90625,3.191364 -7.90625,8.53125 0,5.004912 2.41109,8.15625 7.34375,8.15625 4.38094,0 7.90625,-3.222614 7.90625,-8.5625 0,-5.533646 -3.03506,-8.125 -7.34375,-8.125 z m 146.6875,0 c -3.87848,0 -6.15625,1.970195 -6.15625,4.84375 0,5.313614 6.78125,3.912981 6.78125,7 0,1.484396 -1.22958,2.125 -2.8125,2.125 -1.17241,0 -2.46531,-0.250514 -3.375,-0.5625 l -0.1875,2.90625 c 1.00492,0.266009 2.16308,0.375 3.3125,0.375 3.97372,0 6.40625,-2.240208 6.40625,-5.28125 0,-5.050889 -6.8125,-3.975172 -6.8125,-6.875 0,-1.149422 0.92237,-1.96875 2.71875,-1.96875 0.98193,0 1.96531,0.174775 2.875,0.4375 l 0.1875,-2.71875 c -0.95566,-0.170771 -2.02781,-0.28125 -2.9375,-0.28125 z M 536.3125,64.5625 c -5.6059,0 -9.03125,3.610339 -9.03125,8.6875 0,4.932662 3.02983,7.9375 8.15625,7.9375 1.9376,0 3.92863,-0.356324 5.53125,-1 l 0,-7.71875 -3.125,0 0,5.625 c -0.62069,0.190476 -1.29731,0.28125 -2.0625,0.28125 -3.28078,0 -5.125,-2.015506 -5.125,-5.4375 0,-3.615753 2.28321,-5.625 5.46875,-5.625 1.50738,0 2.99061,0.310038 4.28125,0.8125 l 0.5,-2.875 c -1.38916,-0.407224 -2.99113,-0.6875 -4.59375,-0.6875 z m 97.875,0.09375 c -5.41214,0 -8.09375,3.595612 -8.09375,8.71875 0,4.022977 1.82016,7.78125 7.46875,7.78125 1.50738,0 2.95757,-0.288538 4.15625,-0.71875 L 637.375,77.65625 c -0.83744,0.384235 -2.14635,0.6875 -3.125,0.6875 -3.25779,0 -4.71875,-1.979485 -4.71875,-5.5 0,-3.13628 1.48195,-5.40625 4.5,-5.40625 1.10016,0 2.19582,0.188014 3.25,0.5 l 0.34375,-2.84375 c -1.0509,-0.285713 -2.28808,-0.4375 -3.4375,-0.4375 z M 345.09375,64.6875 c -1.98686,0 -3.9511,0.07574 -5.21875,0.125 l 0,16.125 c 1.36617,0.04926 2.82184,0.09375 4.5,0.09375 5.26764,0 8.90625,-2.88415 8.90625,-8.4375 0,-5.674861 -3.18259,-7.90625 -8.1875,-7.90625 z m 28.03125,0 c -1.86863,0 -3.38532,0.02478 -4.65625,0.09375 l 0,16.15625 3.125,0 0,-6.65625 0.0937,0 4.5,6.65625 3.875,0 -3.875,-5.4375 c -0.40722,-0.551723 -0.85602,-1.149016 -1.3125,-1.75 2.44006,-0.380951 4.09375,-2.105918 4.09375,-4.5 0,-3.307051 -2.27726,-4.5625 -5.84375,-4.5625 z m -62.875,0.09375 0,16.15625 3.125,0 0,-16.15625 -3.125,0 z m 6.875,0 0,16.15625 3.03125,0 0,-5.75 c 0,-1.940881 -0.0577,-4.485841 -0.15625,-5.875 0.47947,1.054184 1.03079,2.250363 1.75,3.46875 l 4.75,8.15625 4,0 0,-16.15625 -3,0 0,5.03125 c 0,1.986858 0.038,4.874389 0.15625,6.5 -0.5977,-1.221671 -1.2578,-2.56784 -2,-3.8125 l -4.46875,-7.71875 -4.0625,0 z m 39.125,0 0,16.15625 8.8125,0 0,-2.65625 -5.6875,0 0,-4.375 5.375,0 0,-2.53125 -5.375,0 0,-3.96875 5.6875,0 0,-2.625 -8.8125,0 z m 31.8125,0 0,16.15625 3.125,0 0,-7 6.84375,0 0,7 3.09375,0 0,-16.15625 -3.09375,0 0,6.46875 -6.84375,0 0,-6.46875 -3.125,0 z m 16.84375,0 0,16.15625 8.78125,0 0,-2.65625 -5.65625,0 0,-4.375 5.375,0 0,-2.53125 -5.375,0 0,-3.96875 5.65625,0 0,-2.625 -8.78125,0 z m 12.21875,0 0,16.15625 8.34375,0 0,-2.71875 -5.25,0 0,-13.4375 -3.09375,0 z m 12.25,0 -2.5,16.15625 3.15625,0 0.90625,-7.4375 c 0.19048,-1.415431 0.37351,-2.68658 0.46875,-4.125 l 0.0312,0 c 0.19048,1.293921 0.60104,2.776841 1.03125,4.09375 l 2.46875,7.46875 3.09375,0 2.5625,-8.09375 c 0.40722,-1.267648 0.66154,-2.437554 0.875,-3.46875 l 0.0625,0 c 0.12151,1.126434 0.26026,2.341343 0.5,3.875 l 1.15625,7.6875 3.28125,0 -2.53125,-16.15625 -3.59375,0 -2.78125,8.375 c -0.40722,1.198683 -0.66651,2.09909 -0.90625,3.34375 l -0.0625,0 c -0.21346,-1.149422 -0.49076,-2.253544 -0.875,-3.40625 L 433,64.78125 l -3.625,0 z m 19.90625,0 0,16.15625 3.125,0 0,-7 6.84375,0 0,7 3.09375,0 0,-16.15625 -3.09375,0 0,6.46875 -6.84375,0 0,-6.46875 -3.125,0 z m 34.0625,0 0,16.15625 8.375,0 0,-2.71875 -5.25,0 0,-13.4375 -3.125,0 z m 9.375,0 0,2.65625 4.1875,0 0,13.5 3.09375,0 0,-13.5 4.21875,0 0,-2.65625 -11.5,0 z m 13.5,0 0,2.8125 3.75,0 c 1.60591,0 2.36279,-0.03951 2.9375,-0.0625 -0.38095,0.502462 -0.72753,0.979527 -1.0625,1.53125 l -5.8125,9.5 0,2.375 10.75,0 0,-2.875 -3.5,0 c -1.98686,0 -3.09278,0.01324 -3.5,0.0625 0.289,-0.384235 0.51026,-0.744049 0.75,-1.125 l 6.15625,-9.71875 0,-2.5 -10.46875,0 z m 38.28125,0 0,16.15625 8.78125,0 0,-2.65625 -5.65625,0 0,-4.375 5.375,0 0,-2.53125 -5.375,0 0,-3.96875 5.65625,0 0,-2.625 -8.78125,0 z m 13.78125,0 -2.46875,16.15625 3.15625,0 L 559.875,73.5 c 0.19376,-1.415431 0.37351,-2.68658 0.46875,-4.125 l 0.0312,0 c 0.19048,1.293921 0.60104,2.776841 1.03125,4.09375 l 2.46875,7.46875 3.09375,0 2.5625,-8.09375 c 0.40394,-1.267648 0.66154,-2.437554 0.875,-3.46875 l 0.0625,0 c 0.11823,1.126434 0.26026,2.341343 0.5,3.875 l 1.125,7.6875 3.28125,0 -2.5,-16.15625 -3.625,0 -2.78125,8.375 c -0.40722,1.198683 -0.66651,2.09909 -0.90625,3.34375 l -0.0312,0 c -0.21675,-1.149422 -0.52201,-2.253544 -0.90625,-3.40625 l -2.6875,-8.3125 -3.65625,0 z m 19.9375,0 0,16.15625 8.78125,0 0,-2.65625 -5.6875,0 0,-4.375 5.40625,0 0,-2.53125 -5.40625,0 0,-3.96875 5.6875,0 0,-2.625 -8.78125,0 z m 12.1875,0 0,16.15625 3.125,0 0,-16.15625 -3.125,0 z m 6.875,0 0,16.15625 3,0 0,-5.75 c 0,-1.940881 -0.0265,-4.485841 -0.125,-5.875 0.47947,1.054184 1.03079,2.250363 1.75,3.46875 l 4.71875,8.15625 4.03125,0 0,-16.15625 -3,0 0,5.03125 c 0,1.986858 0.038,4.874389 0.15625,6.5 -0.5977,-1.221671 -1.2578,-2.56784 -2,-3.8125 l -4.5,-7.71875 -4.03125,0 z m 43.53125,0 0,16.15625 3.125,0 0,-7 6.84375,0 0,7 3.09375,0 0,-16.15625 -3.09375,0 0,6.46875 -6.84375,0 0,-6.46875 -3.125,0 z m 20.84375,0 L 656,80.9375 l 3.15625,0 1.125,-3.28125 6.09375,0 1.125,3.28125 3.4375,0 -5.75,-16.15625 -3.53125,0 z m 11.40625,0 0,16.15625 3.09375,0 0,-6.78125 5.21875,0 0,-2.5625 -5.21875,0 0,-4.1875 5.53125,0 0,-2.625 -8.625,0 z m 9.59375,0 0,2.65625 4.1875,0 0,13.5 3.09375,0 0,-13.5 4.21875,0 0,-2.65625 -11.5,0 z m -309.84375,2.4375 c 1.96387,0 2.90625,0.790388 2.90625,2.34375 0,1.510669 -1.13465,2.46875 -3,2.46875 -0.47947,0 -0.90825,-0.03951 -1.125,-0.0625 l 0,-4.65625 c 0.31199,-0.04926 0.76227,-0.09375 1.21875,-0.09375 z M 344.875,67.3125 c 3.688,0 5.0625,2.059996 5.0625,5.53125 0,3.829217 -2.20896,5.53125 -5.25,5.53125 -0.62069,0 -1.25729,-0.0215 -1.6875,-0.09375 L 343,67.375 c 0.50246,-0.04926 1.15579,-0.0625 1.875,-0.0625 z m 127.96875,0 c 2.77832,0 4.3125,1.969735 4.3125,5.5625 0,3.878478 -2.23867,5.5 -4.34375,5.5 -2.89983,0 -4.25,-2.203006 -4.25,-5.625 0,-3.638742 2.05466,-5.4375 4.28125,-5.4375 z m 190.4375,1.03125 0.0312,0 c 0.19376,0.909685 0.4413,1.710337 0.75,2.59375 l 1.5,4.25 -4.5,0 1.46875,-4.125 c 0.31199,-0.932674 0.55952,-1.881314 0.75,-2.71875 z m -144.21875,5.3125 0,2.4375 5.875,0 0,-2.4375 -5.875,0 z"
         transform="matrix(0.8,0,0,-0.8,107.62037,635.38197)"
         id="path5651"
         style="fill:#0060a9;fill-opacity:1;fill-rule:nonzero;stroke:none" />
      <g
         transform="matrix(2.6272503,0,0,2.6272503,-591.31855,-1382.987)"
         id="g5653"
         style="fill:#0060a9;fill-opacity:1">
        <g
           clip-path="url(#clipPath5657)"
           id="g5655"
           style="fill:#0060a9;fill-opacity:1">
          <g
             transform="translate(366.6746,743.5946)"
             id="g5661"
             style="fill:#0060a9;fill-opacity:1" />
          <g
             transform="translate(373.6127,746.1392)"
             id="g5665"
             style="fill:#0060a9;fill-opacity:1" />
        </g>
      </g>
      <g
         transform="matrix(2.6272503,0,0,2.6272503,399.65872,570.62209)"
         id="g5669"
         style="fill:#0060a9;fill-opacity:1" />
      <g
         transform="matrix(2.6272503,0,0,2.6272503,-591.31855,-1382.987)"
         id="g5673"
         style="fill:#0060a9;fill-opacity:1">
        <g
           clip-path="url(#clipPath5677)"
           id="g5675"
           style="fill:#0060a9;fill-opacity:1">
          <g
             transform="translate(381.7617,743.5946)"
             id="g5681"
             style="fill:#0060a9;fill-opacity:1" />
        </g>
      </g>
      <g
         transform="matrix(2.6272503,0,0,2.6272503,428.52983,570.62209)"
         id="g5685"
         style="fill:#0060a9;fill-opacity:1" />
      <g
         transform="matrix(2.6272503,0,0,2.6272503,438.57645,570.62209)"
         id="g5689"
         style="fill:#0060a9;fill-opacity:1" />
      <g
         transform="matrix(2.6272503,0,0,2.6272503,447.99697,570.62209)"
         id="g5693"
         style="fill:#0060a9;fill-opacity:1" />
      <g
         transform="matrix(2.6272503,0,0,2.6272503,-591.31855,-1382.987)"
         id="g5697"
         style="fill:#0060a9;fill-opacity:1">
        <g
           clip-path="url(#clipPath5701)"
           id="g5699"
           style="fill:#0060a9;fill-opacity:1">
          <g
             transform="translate(401.9821,743.5946)"
             id="g5705"
             style="fill:#0060a9;fill-opacity:1" />
        </g>
      </g>
      <g
         transform="matrix(2.6272503,0,0,2.6272503,477.50415,570.62209)"
         id="g5709"
         style="fill:#0060a9;fill-opacity:1" />
      <g
         transform="matrix(2.6272503,0,0,2.6272503,-591.31855,-1382.987)"
         id="g5713"
         style="fill:#0060a9;fill-opacity:1">
        <g
           clip-path="url(#clipPath5717)"
           id="g5715"
           style="fill:#0060a9;fill-opacity:1">
          <g
             transform="translate(412.3444,746.1244)"
             id="g5721"
             style="fill:#0060a9;fill-opacity:1" />
        </g>
      </g>
      <g
         transform="matrix(2.6272503,0,0,2.6272503,500.99229,570.62209)"
         id="g5725"
         style="fill:#0060a9;fill-opacity:1" />
      <g
         transform="matrix(2.6272503,0,0,2.6272503,510.98478,581.42561)"
         id="g5729"
         style="fill:#0060a9;fill-opacity:1" />
      <g
         transform="matrix(2.6272503,0,0,2.6272503,-591.31855,-1382.987)"
         id="g5733"
         style="fill:#0060a9;fill-opacity:1">
        <g
           clip-path="url(#clipPath5737)"
           id="g5735"
           style="fill:#0060a9;fill-opacity:1">
          <g
             transform="translate(423.391,743.5946)"
             id="g5741"
             style="fill:#0060a9;fill-opacity:1" />
        </g>
      </g>
      <g
         transform="matrix(2.6272503,0,0,2.6272503,-591.31855,-1382.987)"
         id="g5747"
         style="fill:#0060a9;fill-opacity:1">
        <g
           clip-path="url(#clipPath5751)"
           id="g5749"
           style="fill:#0060a9;fill-opacity:1">
          <g
             transform="translate(430.7379,748.3776)"
             id="g5755"
             style="fill:#0060a9;fill-opacity:1" />
        </g>
      </g>
      <g
         transform="matrix(2.6272503,0,0,2.6272503,550.2556,570.62209)"
         id="g5759"
         style="fill:#0060a9;fill-opacity:1" />
      <g
         transform="matrix(2.6272503,0,0,2.6272503,-591.31855,-1382.987)"
         id="g5763"
         style="fill:#0060a9;fill-opacity:1">
        <g
           clip-path="url(#clipPath5767)"
           id="g5765"
           style="fill:#0060a9;fill-opacity:1">
          <g
             transform="translate(441.241,743.5946)"
             id="g5771"
             style="fill:#0060a9;fill-opacity:1" />
        </g>
      </g>
      <g
         transform="matrix(2.6272503,0,0,2.6272503,577.21801,570.62209)"
         id="g5775"
         style="fill:#0060a9;fill-opacity:1" />
      <g
         transform="matrix(2.6272503,0,0,2.6272503,-591.31855,-1382.987)"
         id="g5781"
         style="fill:#0060a9;fill-opacity:1">
        <g
           clip-path="url(#clipPath5785)"
           id="g5783"
           style="fill:#0060a9;fill-opacity:1">
          <g
             transform="translate(451.9809,743.5946)"
             id="g5789"
             style="fill:#0060a9;fill-opacity:1" />
          <g
             transform="translate(455.9825,745.1183)"
             id="g5793"
             style="fill:#0060a9;fill-opacity:1" />
          <g
             transform="translate(460.225,743.748)"
             id="g5797"
             style="fill:#0060a9;fill-opacity:1" />
        </g>
      </g>
      <g
         transform="matrix(2.6272503,0,0,2.6272503,630.73116,570.62209)"
         id="g5801"
         style="fill:#0060a9;fill-opacity:1" />
      <g
         transform="matrix(2.6272503,0,0,2.6272503,-591.31855,-1382.987)"
         id="g5805"
         style="fill:#0060a9;fill-opacity:1">
        <g
           clip-path="url(#clipPath5809)"
           id="g5807"
           style="fill:#0060a9;fill-opacity:1">
          <g
             transform="translate(470.3386,743.5946)"
             id="g5813"
             style="fill:#0060a9;fill-opacity:1" />
        </g>
      </g>
      <g
         transform="matrix(2.6272503,0,0,2.6272503,652.97767,581.44558)"
         id="g5817"
         style="fill:#0060a9;fill-opacity:1" />
      <g
         transform="matrix(2.6272503,0,0,2.6272503,662.93494,581.42561)"
         id="g5821"
         style="fill:#0060a9;fill-opacity:1" />
      <g
         transform="matrix(2.6272503,0,0,2.6272503,367.81698,592.97579)"
         id="g5825"
         style="fill:#000000;fill-opacity:1">
        <path
           d="m 385.03125,1.875 c -4.70606,0 -7.46875,2.4218593 -7.46875,5.90625 0,6.449899 8.21875,4.721634 8.21875,8.46875 0,1.802951 -1.45711,2.59375 -3.375,2.59375 -1.422,0 -3.02155,-0.341083 -4.125,-0.71875 l -0.21875,3.53125 c 1.22167,0.318554 2.60427,0.46875 4,0.46875 4.821,0 7.78125,-2.718247 7.78125,-6.40625 0,-6.1313454 -8.28125,-4.795269 -8.28125,-8.3125 C 381.5625,6.0105233 382.69767,5 384.875,5 c 1.19211,0 2.39327,0.2126959 3.5,0.53125 l 0.21875,-3.3125 C 387.43119,2.0151381 386.1347,1.875 385.03125,1.875 z m 66.75,0 c -4.70606,0 -7.46875,2.4218593 -7.46875,5.90625 0,6.449899 8.25,4.721634 8.25,8.46875 0,1.802951 -1.48836,2.59375 -3.40625,2.59375 -1.422,0 -2.9903,-0.341083 -4.09375,-0.71875 l -0.25,3.53125 c 1.22167,0.318554 2.63552,0.46875 4.03125,0.46875 4.821,0 7.75,-2.718247 7.75,-6.40625 0,-6.1313454 -8.25,-4.795269 -8.25,-8.3125 C 448.34375,6.0105233 449.44767,5 451.625,5 c 1.19211,0 2.39655,0.2126959 3.5,0.53125 l 0.21875,-3.3125 C 454.18119,2.0151381 452.8847,1.875 451.78125,1.875 z M 402.125,2.03125 c -6.56484,0 -9.84375,4.377019 -9.84375,10.59375 0,4.883401 2.23663,9.4375 9.09375,9.4375 1.82922,0 3.57969,-0.352834 5.03125,-0.875 l -0.4375,-3.375 c -1.01478,0.463053 -2.59242,0.8125 -3.78125,0.8125 -3.95073,0 -5.75,-2.386968 -5.75,-6.65625 0,-3.8062289 1.80702,-6.5625 5.46875,-6.5625 1.33661,0 2.69125,0.2160828 3.96875,0.59375 l 0.40625,-3.4375 C 405.00375,2.2143893 403.51744,2.03125 402.125,2.03125 z M 316.53125,2.0625 c -2.41379,0 -4.80352,0.097137 -6.34375,0.15625 l 0,19.5625 c 1.65517,0.05583 3.43592,0.125 5.46875,0.125 6.39079,0 10.8125,-3.511103 10.8125,-10.25 0,-6.8866798 -3.86855,-9.59375 -9.9375,-9.59375 z m 13.21875,0.125 0,19.625 10.65625,0 0,-3.25 -6.875,0 0,-5.3125 6.53125,0 0,-3.0625 -6.53125,0 0,-4.84375 6.875,0 0,-3.15625 -10.65625,0 z m 14.5,0 0,12.8125 c 0,3.747116 1.37533,7.125 7.5625,7.125 5.1724,0 8.15625,-2.564773 8.15625,-7.9375 l 0,-12 -3.75,0 0,12.25 c 0,3.339892 -1.2186,4.53125 -4.125,4.53125 -3.25451,0 -4.09375,-1.717885 -4.09375,-4.1875 l 0,-12.59375 -3.75,0 z m 17.96875,0 0,3.21875 5.0625,0 0,16.40625 3.78125,0 0,-16.40625 5.09375,0 0,-3.21875 -13.9375,0 z m 47.8125,0 0,19.625 3.78125,0 0,-8.53125 8.3125,0 0,8.53125 3.78125,0 0,-19.625 -3.78125,0 0,7.84375 -8.3125,0 0,-7.84375 -3.78125,0 z m 20.6875,0 0,19.625 10.65625,0 0,-3.25 -6.90625,0 0,-5.3125 6.5625,0 0,-3.0625 -6.5625,0 0,-4.84375 6.90625,0 0,-3.15625 -10.65625,0 z M 315.03125,5.25 c 0.38875,-0.014778 0.81486,0 1.25,0 4.47289,0 6.125,2.4773314 6.125,6.6875 0,4.650233 -2.68371,6.75 -6.375,6.75 -0.75533,0 -1.54033,-0.03961 -2.0625,-0.125 l 0,-13.21875 c 0.30542,-0.029557 0.67375,-0.078972 1.0625,-0.09375 z m 66.75,27.84375 c -4.18075,0.277947 -6.59375,2.608384 -6.59375,5.875 0,6.449899 8.21875,4.752884 8.21875,8.5 0,1.802951 -1.48836,2.5625 -3.40625,2.5625 -1.422,0 -2.9903,-0.309833 -4.09375,-0.6875 L 375.6875,52.875 c 1.22167,0.318554 2.60427,0.46875 4,0.46875 4.821,0 7.75,-2.718247 7.75,-6.40625 0,-6.131345 -8.25,-4.829803 -8.25,-8.34375 0,-1.395727 1.10392,-2.375 3.28125,-2.375 1.19211,0 2.42452,0.212696 3.53125,0.53125 l 0.1875,-3.3125 c -1.16256,-0.203612 -2.4278,-0.34375 -3.53125,-0.34375 -0.29413,0 -0.59628,-0.01853 -0.875,0 z m 31.15625,0 c -5.25778,0 -9.59375,3.864294 -9.59375,10.34375 0,6.072232 2.95394,9.90625 8.9375,9.90625 5.31361,0 9.5625,-3.926794 9.5625,-10.40625 0,-6.712625 -3.67474,-9.84375 -8.90625,-9.84375 z m 34.40625,0 c -4.18075,0.277947 -6.625,2.608384 -6.625,5.875 0,6.449899 8.21875,4.752884 8.21875,8.5 0,1.802951 -1.48836,2.5625 -3.40625,2.5625 -1.422,0 -2.9903,-0.309833 -4.09375,-0.6875 l -0.21875,3.53125 c 1.22167,0.318554 2.60427,0.46875 4,0.46875 4.821,0 7.78125,-2.718247 7.78125,-6.40625 0,-6.131345 -8.28125,-4.829803 -8.28125,-8.34375 0,-1.395727 1.13517,-2.375 3.3125,-2.375 1.19211,0 2.39327,0.212696 3.5,0.53125 L 451.75,33.4375 c -1.16256,-0.203612 -2.45577,-0.34375 -3.5625,-0.34375 -0.29413,0 -0.56503,-0.01853 -0.84375,0 z m 97.28125,0 c -6.79801,0 -10.96875,4.404882 -10.96875,10.5625 0,5.986847 3.68952,9.65625 9.90625,9.65625 2.35467,0 4.7713,-0.433859 6.71875,-1.21875 l 0,-9.375 -3.78125,0 0,6.84375 c -0.75533,0.233168 -1.57061,0.34375 -2.5,0.34375 -3.98028,0 -6.25,-2.442695 -6.25,-6.59375 0,-4.387508 2.79091,-6.84375 6.65625,-6.84375 1.82922,0 3.621,0.392448 5.1875,1 l 0.59375,-3.53125 c -1.68472,-0.495893 -3.61505,-0.84375 -5.5625,-0.84375 z m 15.53125,0 c -4.18075,0.277947 -6.625,2.608384 -6.625,5.875 0,6.449899 8.21875,4.752884 8.21875,8.5 0,1.802951 -1.45711,2.5625 -3.375,2.5625 -1.422,0 -2.9903,-0.309833 -4.09375,-0.6875 l -0.25,3.53125 c 1.22167,0.318554 2.60427,0.46875 4,0.46875 4.821,0 7.78125,-2.718247 7.78125,-6.40625 0,-6.131345 -8.25,-4.829803 -8.25,-8.34375 0,-1.395727 1.10392,-2.375 3.28125,-2.375 1.19211,0 2.39327,0.212696 3.5,0.53125 l 0.21875,-3.3125 c -1.16256,-0.203612 -2.45905,-0.34375 -3.5625,-0.34375 -0.29413,0 -0.56503,-0.01853 -0.84375,0 z m -94.875,0.15625 c -6.56813,0 -9.84375,4.345769 -9.84375,10.5625 0,4.883401 2.23663,9.46875 9.09375,9.46875 1.82922,0 3.57969,-0.352834 5.03125,-0.875 l -0.4375,-3.375 c -1.01478,0.463053 -2.62039,0.8125 -3.8125,0.8125 -3.95073,0 -5.71875,-2.386968 -5.71875,-6.65625 0,-3.806229 1.80702,-6.5625 5.46875,-6.5625 1.33661,0 2.68797,0.216083 3.96875,0.59375 l 0.40625,-3.4375 C 468.16,33.433139 466.67369,33.25 465.28125,33.25 z m -131.9375,0.03125 c -2.266,0 -4.08477,0.03633 -5.625,0.125 l 0,19.59375 3.75,0 0,-8.09375 0.15625,0 5.46875,8.09375 4.65625,0 -4.6875,-6.59375 c -0.49589,-0.669949 -1.04203,-1.433756 -1.59375,-2.15625 2.96551,-0.466337 5,-2.531104 5,-5.4375 0,-4.006557 -2.79661,-5.53125 -7.125,-5.53125 z m 32.3125,0 c -2.4105,0 -4.96983,0.06758 -6.625,0.15625 l 0,19.5625 c 2.46962,0 4.52664,0.0625 5.71875,0.0625 5.92445,0 7.875,-3.246467 7.875,-6.09375 0,-1.977006 -1.14692,-3.882391 -3.46875,-4.375 l 0,-0.0625 c 1.85878,-0.729062 3.09375,-2.462085 3.09375,-4.40625 0,-3.139564 -2.35074,-4.84375 -6.59375,-4.84375 z m 65,0 c -2.266,0 -4.11602,0.03633 -5.65625,0.125 L 425,53 l 3.78125,0 0,-8.09375 0.15625,0 5.46875,8.09375 4.65625,0 -4.6875,-6.59375 c -0.49261,-0.669949 -1.03874,-1.433756 -1.59375,-2.15625 2.96551,-0.466337 5,-2.531104 5,-5.4375 0,-4.006557 -2.79661,-5.53125 -7.125,-5.53125 z m 208.90625,0 c -2.266,0 -4.08477,0.03633 -5.625,0.125 l 0,19.59375 3.78125,0 0,-8.09375 0.125,0 L 643.3125,53 648,53 643.28125,46.40625 c -0.49261,-0.669949 -1.04203,-1.433756 -1.59375,-2.15625 2.96551,-0.466337 5,-2.531104 5,-5.4375 0,-4.006557 -2.79661,-5.53125 -7.125,-5.53125 z m -329.375,0.125 0,19.59375 3.78125,0 0,-9.40625 6.3125,9.40625 4.96875,0 -7.5,-10.125 7.1875,-9.46875 -4.59375,0 -6.375,8.875 0,-8.875 -3.78125,0 z m 34.34375,0 0,19.59375 10.6875,0 0,-3.21875 -6.90625,0 0,-5.3125 6.53125,0 0,-3.09375 -6.53125,0 0,-4.8125 6.90625,0 0,-3.15625 -10.6875,0 z m 46.3125,0 0,19.59375 3.78125,0 0,-8.25 6.3125,0 0,-3.09375 -6.3125,0 0,-5.0625 6.6875,0 0,-3.1875 -10.46875,0 z m 82.34375,0 0,19.59375 3.78125,0 0,-8.5 8.3125,0 0,8.5 3.78125,0 0,-19.59375 -3.78125,0 0,7.84375 -8.3125,0 0,-7.84375 -3.78125,0 z m 20.625,0 0,12.8125 c 0,3.743832 1.37533,7.125 7.5625,7.125 5.1724,0 8.15625,-2.564773 8.15625,-7.9375 l 0,-12 -3.75,0 0,12.21875 c 0,3.339892 -1.22189,4.5625 -4.125,4.5625 -3.25451,0 -4.0625,-1.745851 -4.0625,-4.21875 l 0,-12.5625 -3.78125,0 z m 20.34375,0 0,19.59375 3.65625,0 0,-7 c 0,-2.354673 -0.0413,-5.440276 -0.15625,-7.125 0.58128,1.2775 1.22347,2.740922 2.09375,4.21875 L 525.53125,53 l 4.875,0 0,-19.59375 -3.65625,0 0,6.09375 c 0,2.410502 0.043,5.901278 0.1875,7.875 -0.72578,-1.481112 -1.50642,-3.114331 -2.40625,-4.625 l -5.46875,-9.34375 -4.90625,0 z m 54,0 0,3.40625 4.53125,0 c 1.94417,0 2.86299,-0.03294 3.5625,-0.0625 -0.46634,0.610836 -0.87731,1.177085 -1.28125,1.84375 l -7.0625,11.5 0,2.90625 13.03125,0 0,-3.46875 -4.25,0 c -2.41379,0 -3.75739,0.0034 -4.25,0.0625 0.34811,-0.466337 0.61725,-0.908663 0.90625,-1.375 l 7.46875,-11.8125 0,-3 -12.65625,0 z m 16.25,0 0,19.59375 10.65625,0 0,-3.21875 -6.875,0 0,-5.3125 6.53125,0 0,-3.09375 -6.53125,0 0,-4.8125 6.875,0 0,-3.15625 -10.65625,0 z m 14.5,0 0,19.59375 3.65625,0 0,-7 c 0,-2.354673 -0.0726,-5.440276 -0.1875,-7.125 0.58128,1.2775 1.25472,2.740922 2.125,4.21875 L 610.25,53 l 4.90625,0 0,-19.59375 -3.6875,0 0,6.09375 c 0,2.410502 0.0743,5.901278 0.21875,7.875 -0.72578,-1.481112 -1.50642,-3.114331 -2.40625,-4.625 l -5.46875,-9.34375 -4.90625,0 z m 18.71875,0 0,3.21875 5.09375,0 0,16.375 3.78125,0 0,-16.375 5.09375,0 0,-3.21875 -13.96875,0 z m 32.9375,0 0,12.8125 c 0,3.743832 1.40658,7.125 7.59375,7.125 5.1724,0 8.125,-2.564773 8.125,-7.9375 l 0,-12 -3.75,0 0,12.21875 c 0,3.339892 -1.2186,4.5625 -4.125,4.5625 -3.25451,0 -4.0625,-1.745851 -4.0625,-4.21875 l 0,-12.5625 -3.78125,0 z m 21.6875,0 L 669.21875,53 l 3.84375,0 1.125,-9.03125 c 0.23317,-1.714281 0.41302,-3.256163 0.53125,-5 l 0.0625,0 c 0.22988,1.569782 0.72783,3.341445 1.25,4.9375 l 3,9.09375 3.75,0 3.09375,-9.84375 c 0.49261,-1.536941 0.83102,-2.936272 1.09375,-4.1875 l 0.0312,0 c 0.1445,1.36617 0.336,2.832004 0.625,4.6875 L 689.03125,53 693,53 l -3.0625,-19.59375 -4.375,0 -3.375,10.125 c -0.49261,1.451556 -0.80147,2.551831 -1.09375,4.0625 l -0.0625,0 c -0.25944,-1.395727 -0.62741,-2.732557 -1.09375,-4.125 l -3.28125,-10.0625 -4.40625,0 z m -307.21875,2.9375 c 2.38423,0 3.25,0.95141 3.25,2.40625 0,1.740553 -1.35294,2.78125 -3.9375,2.78125 -0.61084,0 -1.0682,-0.005 -1.53125,-0.03125 l 0,-5.09375 c 0.66995,-0.02956 1.43386,-0.0625 2.21875,-0.0625 z m -32.875,0.03125 c 0.25451,-0.01478 0.535,0 0.8125,0 2.38095,0 3.53125,0.924164 3.53125,2.8125 0,1.832507 -1.39025,3 -3.65625,3 -0.58128,0 -1.11227,-0.03294 -1.375,-0.0625 l 0,-5.6875 c 0.18883,-0.02956 0.43299,-0.04772 0.6875,-0.0625 z m 97.3125,0 c 0.2541,-0.01478 0.535,0 0.8125,0 2.38095,0 3.53125,0.924164 3.53125,2.8125 0,1.832507 -1.39025,3 -3.65625,3 -0.58128,0 -1.11227,-0.03294 -1.375,-0.0625 l 0,-5.6875 c 0.19048,-0.02956 0.4334,-0.04772 0.6875,-0.0625 z m 208.90625,0 c 0.2541,-0.01478 0.535,0 0.8125,0 2.38095,0 3.53125,0.924164 3.53125,2.8125 0,1.832507 -1.39025,3 -3.65625,3 -0.58128,0 -1.08431,-0.03294 -1.34375,-0.0625 l 0,-5.6875 c 0.18719,-0.02956 0.40215,-0.04772 0.65625,-0.0625 z m -225.78125,0.09375 c 3.36945,0 5.21875,2.392049 5.21875,6.75 0,4.706062 -2.72297,6.6875 -5.28125,6.6875 -3.51395,0 -5.125,-2.72066 -5.125,-6.875 0,-4.417065 2.48472,-6.5625 5.1875,-6.5625 z m -48.125,7.875 c 2.46962,0 4.125,0.800857 4.125,2.71875 0,1.773394 -1.24913,2.9375 -3.71875,2.9375 -0.87028,0 -1.59945,-0.06917 -2.0625,-0.125 l 0,-5.5 c 0.40722,-0.02627 1.36725,-0.03125 1.65625,-0.03125 z"
           transform="matrix(0.30450087,0,0,-0.30450087,-99.037619,16.140898)"
           id="path5827"
           style="fill:#000000;fill-opacity:1;fill-rule:nonzero;stroke:none" />
      </g>
      <g
         transform="matrix(2.6272503,0,0,2.6272503,-591.31855,-1382.987)"
         id="g5829"
         style="fill:#000000;fill-opacity:1">
        <g
           clip-path="url(#clipPath5833)"
           id="g5831"
           style="fill:#000000;fill-opacity:1">
          <g
             transform="translate(370.1023,752.103)"
             id="g5837"
             style="fill:#000000;fill-opacity:1" />
        </g>
      </g>
      <g
         transform="matrix(2.6272503,0,0,2.6272503,391.78564,592.97579)"
         id="g5841"
         style="fill:#000000;fill-opacity:1" />
      <g
         transform="matrix(2.6272503,0,0,2.6272503,-591.31855,-1382.987)"
         id="g5845"
         style="fill:#000000;fill-opacity:1">
        <g
           clip-path="url(#clipPath5849)"
           id="g5847"
           style="fill:#000000;fill-opacity:1">
          <g
             transform="translate(379.5011,753.9426)"
             id="g5853"
             style="fill:#000000;fill-opacity:1" />
          <g
             transform="translate(384.0103,753.9514)"
             id="g5857"
             style="fill:#000000;fill-opacity:1" />
        </g>
      </g>
      <g
         transform="matrix(2.6272503,0,0,2.6272503,428.6788,606.10705)"
         id="g5861"
         style="fill:#000000;fill-opacity:1" />
      <g
         transform="matrix(2.6272503,0,0,2.6272503,-591.31855,-1382.987)"
         id="g5865"
         style="fill:#000000;fill-opacity:1">
        <g
           clip-path="url(#clipPath5869)"
           id="g5867"
           style="fill:#000000;fill-opacity:1">
          <g
             transform="translate(394.4903,755.1722)"
             id="g5873"
             style="fill:#000000;fill-opacity:1" />
          <g
             transform="translate(399.7339,752.103)"
             id="g5877"
             style="fill:#000000;fill-opacity:1" />
          <g
             transform="translate(403.9686,753.9514)"
             id="g5881"
             style="fill:#000000;fill-opacity:1" />
          <g
             transform="translate(409.0188,752.2886)"
             id="g5885"
             style="fill:#000000;fill-opacity:1" />
        </g>
      </g>
      <g
         transform="matrix(2.6272503,0,0,2.6272503,498.86395,592.97579)"
         id="g5889"
         style="fill:#000000;fill-opacity:1" />
      <g
         transform="matrix(2.6272503,0,0,2.6272503,-591.31855,-1382.987)"
         id="g5893"
         style="fill:#000000;fill-opacity:1">
        <g
           clip-path="url(#clipPath5897)"
           id="g5895"
           style="fill:#000000;fill-opacity:1">
          <g
             transform="translate(421.1838,754.4202)"
             id="g5901"
             style="fill:#000000;fill-opacity:1" />
          <g
             transform="translate(427.5408,752.103)"
             id="g5905"
             style="fill:#000000;fill-opacity:1" />
          <g
             transform="translate(433.5638,757.9057)"
             id="g5909"
             style="fill:#000000;fill-opacity:1" />
          <g
             transform="translate(438.321,753.9514)"
             id="g5913"
             style="fill:#000000;fill-opacity:1" />
          <g
             transform="translate(442.9287,752.103)"
             id="g5917"
             style="fill:#000000;fill-opacity:1" />
        </g>
      </g>
      <g
         transform="matrix(2.6272503,0,0,2.6272503,583.67869,592.97579)"
         id="g5921"
         style="fill:#000000;fill-opacity:1" />
      <g
         transform="matrix(2.6272503,0,0,2.6272503,-591.31855,-1382.987)"
         id="g5925"
         style="fill:#000000;fill-opacity:1">
        <g
           clip-path="url(#clipPath5929)"
           id="g5927"
           style="fill:#000000;fill-opacity:1">
          <g
             transform="translate(453.3455,752.103)"
             id="g5933"
             style="fill:#000000;fill-opacity:1" />
        </g>
      </g>
      <g
         transform="matrix(2.6272503,0,0,2.6272503,612.88425,606.08288)"
         id="g5937"
         style="fill:#000000;fill-opacity:1" />
      <g
         transform="matrix(2.6272503,0,0,2.6272503,-591.31855,-1382.987)"
         id="g5941"
         style="fill:#000000;fill-opacity:1">
        <g
           clip-path="url(#clipPath5945)"
           id="g5943"
           style="fill:#000000;fill-opacity:1">
          <g
             transform="translate(463.3468,752.103)"
             id="g5949"
             style="fill:#000000;fill-opacity:1" />
          <g
             transform="translate(468.9171,754.4202)"
             id="g5953"
             style="fill:#000000;fill-opacity:1" />
          <g
             transform="translate(477.0524,752.103)"
             id="g5957"
             style="fill:#000000;fill-opacity:1" />
          <g
             transform="translate(365.4436,764.6927)"
             id="g5961"
             style="fill:#000000;fill-opacity:1" />
        </g>
      </g>
      <g
         transform="matrix(2.6272503,0,0,2.6272503,379.94778,617.94071)"
         id="g5965"
         style="fill:#000000;fill-opacity:1" />
      <g
         transform="matrix(2.6272503,0,0,2.6272503,-591.31855,-1382.987)"
         id="g5969"
         style="fill:#000000;fill-opacity:1">
        <g
           clip-path="url(#clipPath5973)"
           id="g5971"
           style="fill:#000000;fill-opacity:1">
          <g
             transform="translate(375.6407,763.9232)"
             id="g5977"
             style="fill:#000000;fill-opacity:1" />
        </g>
      </g>
      <g
         transform="matrix(2.6272503,0,0,2.6272503,408.54408,631.04937)"
         id="g5981"
         style="fill:#000000;fill-opacity:1" />
      <g
         transform="matrix(2.6272503,0,0,2.6272503,-591.31855,-1382.987)"
         id="g5985"
         style="fill:#000000;fill-opacity:1">
        <g
           clip-path="url(#clipPath5989)"
           id="g5987"
           style="fill:#000000;fill-opacity:1">
          <g
             transform="translate(384.7381,763.4543)"
             id="g5993"
             style="fill:#000000;fill-opacity:1" />
          <g
             transform="translate(389.7881,761.791)"
             id="g5997"
             style="fill:#000000;fill-opacity:1" />
        </g>
      </g>
      <g
         transform="matrix(2.6272503,0,0,2.6272503,448.34088,617.94071)"
         id="g6001"
         style="fill:#000000;fill-opacity:1" />
      <g
         transform="matrix(2.6272503,0,0,2.6272503,460.71628,617.94071)"
         id="g6005"
         style="fill:#000000;fill-opacity:1" />
      <g
         transform="matrix(2.6272503,0,0,2.6272503,-591.31855,-1382.987)"
         id="g6009"
         style="fill:#0060a9;fill-opacity:1">
        <g
           clip-path="url(#clipPath6013)"
           id="g6011"
           style="fill:#0060a9;fill-opacity:1">
          <g
             transform="translate(405.0656,763.4543)"
             id="g6017"
             style="fill:#000000;fill-opacity:1" />
          <g
             transform="translate(279.8944,756.422)"
             id="g6021"
             style="fill:#0060a9;fill-opacity:1">
            <path
               d="M 170.53125,1.03125 C 151.2004,1.8395303 150.5,21.78125 150.5,21.78125 l -6.125,0 C 144.3553,21.761546 129.15625,37.503284 129.15625,37.5 l 20.75,0 0,42.40625 22.5,0 c 0.0361,0 0.003,-42.402966 0,-42.40625 l 10.65625,0 0,-15.71875 c 0,0.01642 -9.98517,0.01314 -9.96875,0 0,0 0.11697,-7.971314 10.21875,-7.53125 l 0,-11.46875 c -4.97176,-1.4116339 -9.20146,-1.89968153 -12.78125,-1.75 z m -99.4375,0.875 0,78 21.875,0 0,-25.5625 22.84375,25.5625 27.9375,0 -28.9375,-33.375 24.21875,-24.75 -27.375,0 -18.6875,18.9375 0,-38.8125 -21.875,0 z m -25.5625,0.03125 0,20.46875 c 0,0 -44.2258322,-6.778945 -44.53125,27.5625 -0.2561569,28.778243 28.699251,29.9375 28.84375,29.9375 l 37.1875,0 0,-77.96875 -21.5,0 z m 141.5,19.84375 0,15.71875 25.15625,0 -27.09375,42.40625 59,0 0,-15.03125 -25.21875,0 25.21875,-43.09375 -57.0625,0 z M 35.8125,37.625 c 5.136132,-0.1146 9.71875,1.1875 9.71875,1.1875 l 0,24.03125 c 0,0 -23.875,6.435138 -23.875,-11.96875 0,-10.597876 7.552652,-13.102657 14.15625,-13.25 z m 227.28125,13.25 c -8.17403,0 -14.78125,6.607218 -14.78125,14.78125 0,8.174032 6.60722,14.8125 14.78125,14.8125 8.17403,0 14.8125,-6.638468 14.8125,-14.8125 0,-8.174032 -6.63847,-14.78125 -14.8125,-14.78125 z"
               transform="matrix(0.30450087,0,0,-0.30450087,-13.860016,11.821881)"
               id="path6023"
               style="fill:#0060a9;fill-opacity:1;fill-rule:nonzero;stroke:none" />
          </g>
          <g
             transform="translate(341.6411,748.2483)"
             id="g6025"
             style="fill:#0060a9;fill-opacity:1" />
        </g>
      </g>
      <g
         transform="matrix(2.6272503,0,0,2.6272503,302.89395,617.95385)"
         id="g6029"
         style="fill:#0060a9;fill-opacity:1" />
      <g
         transform="matrix(2.6272503,0,0,2.6272503,222.62987,571.45677)"
         id="g6033"
         style="fill:#0060a9;fill-opacity:1" />
      <g
         transform="matrix(2.6272503,0,0,2.6272503,-591.31855,-1382.987)"
         id="g6037"
         style="fill:#0060a9;fill-opacity:1">
        <g
           clip-path="url(#clipPath6041)"
           id="g6039"
           style="fill:#0060a9;fill-opacity:1">
          <g
             transform="translate(321.7728,756.8251)"
             id="g6045"
             style="fill:#0060a9;fill-opacity:1" />
        </g>
      </g>
    </g>
  </g>
</svg>
