<?xml version="1.0" encoding="utf-8"?>
<!-- Generator: Adobe Illustrator 27.2.0, SVG Export Plug-In . SVG Version: 6.00 Build 0)  -->
<svg version="1.1" id="Lager_1" xmlns="http://www.w3.org/2000/svg" xmlns:xlink="http://www.w3.org/1999/xlink" x="0px" y="0px"
	 viewBox="0 0 1269.9 639" style="enable-background:new 0 0 1269.9 639;" xml:space="preserve">
<style type="text/css">
	.st0{fill:#870052;}
	.st1{fill:none;}
</style>
<g>
	<polygon class="st0" points="640.6,309.8 619.2,258.6 618.9,258.6 618.9,309.8 599.1,309.8 599.1,209.3 618.9,209.3 618.9,256.1
		619.2,256.1 641,209.3 660.7,209.3 637.5,255.9 662.9,309.8 	"/>
	<g>
		<path class="st0" d="M703.7,268.8c-12.1,1.6-18.1,5.7-18.1,17.1c0,8,3.9,12.6,11.4,12.6c2.6,0,5.3-0.7,6.7-1.3L703.7,268.8
			L703.7,268.8z M696.1,311.3c-18.9,0-28.4-9.1-28.4-24.7c0-20.2,14.9-26.4,35.9-29.2v-2.6c0-7.4-4.4-10.9-11.3-10.9
			c-6.6,0-12.4,1.9-16.7,4.1l-3.9-12.4c4.5-2.5,12.4-5.8,24.3-5.8c14.7,0,25.9,7.3,25.9,28.9v46.9
			C716.2,309.1,708.3,311.3,696.1,311.3"/>
		<path class="st0" d="M770.3,245.3c-4.4-2.2-9.4-2-13-0.3v64.9h-18.9v-74.4c7.2-4.2,17.2-6.6,35.4-5.7L770.3,245.3z"/>
		<path class="st0" d="M807.4,243.7c-8.3,0-9.8,12-9.8,26.3c0,14.3,1.6,26,9.8,26c8.5,0,9.9-11.7,9.9-25.9
			C817.3,255.8,815.8,243.7,807.4,243.7 M807.4,311.3c-19.3,0-28.8-17.5-28.8-40.9s9.5-40.8,28.8-40.8c19.4,0,28.8,17.4,28.8,40.8
			C836.1,293.8,826.8,311.3,807.4,311.3"/>
		<polygon class="st0" points="851.1,309.8 851.1,200.8 870.2,195.2 870.2,309.8 		"/>
		<path class="st0" d="M887.4,231.1h19v78.7h-19V231.1z M896.8,218.2c-5.5,0-10.1-4.7-10.1-10.2c0-5.7,4.6-10.2,10.1-10.2
			c5.7,0,10.4,4.5,10.4,10.2C907.1,213.6,902.5,218.2,896.8,218.2"/>
		<path class="st0" d="M959.6,309.8v-55.7c0-6.9-2.8-10.7-9.5-10.7c-3.9,0-5.9,0.4-7.9,1.5v64.9h-18.9v-74.4
			c6.3-3.5,15.2-5.8,27.2-5.8c19.3,0,28.2,7.9,28.2,24.5v55.7H959.6z"/>
		<path class="st0" d="M1010.9,311.3c-8.9,0-15.1-1.9-19.6-5.8l4.7-13.9c2.2,2,6.9,4.4,12,4.4c4.9,0,8.2-2.9,8.2-7.3
			c0-5.7-2.5-8-9.5-13.3c-7.4-5.6-14-12.4-14-22.8c0-13.4,8.9-22.9,22.1-22.9c8.5,0,14.7,2.2,19.3,5.8l-4.5,12.1
			c-1.9-1.8-5.5-3.8-10.4-3.8c-4.7,0-7.6,3.5-7.6,7.4c0,5.1,3.7,8.2,10.7,13.3c8.2,6.1,14,11.8,14,23.4
			C1036.1,301.4,1025.5,311.3,1010.9,311.3"/>
		<polygon class="st0" points="1088.6,309.8 1068.6,268.6 1068.3,268.6 1068.3,309.8 1049.4,309.8 1049.4,200.8 1068.3,195.2
			1068.3,267.2 1068.6,267.2 1088.7,231.1 1107.4,231.1 1085.5,267.2 1109,309.8 		"/>
		<path class="st0" d="M1150.7,268.8c-12.2,1.6-18.1,5.7-18.1,17.1c0,8,3.9,12.6,11.4,12.6c2.6,0,5.3-0.7,6.7-1.3V268.8
			L1150.7,268.8z M1143.1,311.3c-18.8,0-28.3-9.1-28.3-24.7c0-20.2,14.9-26.4,36-29.2v-2.6c0-7.4-4.4-10.9-11.3-10.9
			c-6.6,0-12.4,1.9-16.6,4.1l-3.9-12.4c4.5-2.5,12.4-5.8,24.3-5.8c14.8,0,25.8,7.3,25.8,28.9v46.9
			C1163.2,309.1,1155.3,311.3,1143.1,311.3"/>
		<rect x="599.1" y="332.8" class="st0" width="20" height="100.5"/>
		<path class="st0" d="M672.8,433.4v-55.7c0-6.9-2.8-10.7-9.5-10.7c-3.9,0-5.8,0.4-7.9,1.5v64.9h-18.8V359
			c6.3-3.5,15.2-5.8,27.2-5.8c19.3,0,28.2,7.9,28.2,24.5v55.7L672.8,433.4L672.8,433.4z"/>
		<path class="st0" d="M724.1,434.8c-8.9,0-15.1-1.9-19.6-5.9l4.7-13.9c2.2,2.1,6.9,4.4,12,4.4c5,0,8.2-2.9,8.2-7.3
			c0-5.7-2.5-8-9.5-13.3c-7.4-5.5-14-12.4-14-22.8c0-13.5,8.9-22.9,22.1-22.9c8.5,0,14.8,2.2,19.3,5.8l-4.5,12.1
			c-1.9-1.7-5.6-3.8-10.4-3.8c-4.7,0-7.6,3.5-7.6,7.5c0,5.1,3.6,8.2,10.6,13.3c8.2,6.1,14,11.8,14,23.4
			C749.4,424.9,738.7,434.8,724.1,434.8"/>
		<path class="st0" d="M786.2,434.4c-12.9,0-19.9-8.8-19.9-22.6v-42.9h-7v-14.2h7v-17.1l19-6v23.1h10.4v14.2h-10.4v40.9
			c0,7.3,2.5,9.8,6.4,9.8c1.8,0,2.9-0.4,3.9-0.7v13.4C794.5,433.2,790.6,434.4,786.2,434.4"/>
		<path class="st0" d="M808.7,354.6h19v78.8h-19V354.6z M818,341.7c-5.6,0-10.1-4.7-10.1-10.2c0-5.7,4.5-10.2,10.1-10.2
			c5.7,0,10.4,4.5,10.4,10.2C828.4,337.1,823.8,341.7,818,341.7"/>
		<path class="st0" d="M868.3,434.4c-12.9,0-19.9-8.8-19.9-22.6v-42.9h-7v-14.2h7v-17.1l19-6v23.1h10.4v14.2h-10.4v40.9
			c0,7.3,2.5,9.8,6.4,9.8c1.7,0,2.9-0.4,3.9-0.7v13.4C876.6,433.2,872.7,434.4,868.3,434.4"/>
		<path class="st0" d="M918.1,434.8c-17.5,0-27.6-7.6-27.6-27.3v-52.9h19v55.1c0,6.3,3.1,10.2,9.2,10.2c2.9,0,5.5-0.7,7.6-1.9v-63.4
			h19.1v74.1C939.7,432.3,930.5,434.8,918.1,434.8"/>
		<path class="st0" d="M985.6,434.4c-12.8,0-19.9-8.8-19.9-22.6v-42.9h-7v-14.2h7v-17.1l19-6v23.1h10.4v14.2h-10.4v40.9
			c0,7.3,2.5,9.8,6.4,9.8c1.8,0,2.9-0.4,3.9-0.7v13.4C993.9,433.2,990,434.4,985.6,434.4"/>
		<path class="st0" d="M1033.7,366.9c-7,0-11.6,9.6-11.4,23.5l21.3-2.6C1043.6,374.5,1040.7,366.9,1033.7,366.9 M1023.4,402.7
			c1.2,11.4,6.1,17.1,15.5,17.1c8,0,13.5-2.2,16.5-4.1l4.2,13.3c-5,3.5-12.7,5.9-23.3,5.9c-20.7,0-31.8-15.4-31.8-41.1
			c0-23.7,10.8-40.6,29.5-40.6c19.9,0,29.5,17,28,44.7L1023.4,402.7z"/>
		<path class="st0" d="M1099.2,434.4c-12.9,0-19.9-8.8-19.9-22.6v-42.9h-7v-14.2h7v-17.1l19-6v23.1h10.4v14.2h-10.4v40.9
			c0,7.3,2.5,9.8,6.4,9.8c1.8,0,2.9-0.4,4-0.7v13.4C1107.6,433.2,1103.6,434.4,1099.2,434.4"/>
	</g>
</g>
<g>
	<g>
		<g>
			<path class="st0" d="M155.5,444.6l-5.5-1c-0.1,0-0.3-0.1-0.5-0.1c-0.4-0.1-0.8-0.2-1.1-0.2c-1.2,0-2.1,0.8-2.1,1.9
				c0,0.9,0.5,1.7,1.3,2c0.3,0.1,0.5,0.2,0.7,0.2s0.4,0,0.6-0.1l6.6-1.6V444.6z"/>
			<path class="st0" d="M154.1,436.9c-0.1-0.1-0.2-0.3-0.3-0.4c-0.4-0.7-0.9-1.5-2.1-1.5c-1.2,0-2.1,0.9-2.1,2
				c0,1.3,1.1,1.9,1.8,2.3l5,3.1l0.7-0.8L154.1,436.9z"/>
			<path class="st0" d="M160,449.2c2.1,0,3.8-1.8,3.8-4c0-2.1-1.8-3.8-3.9-3.8c-2.1,0-3.9,1.8-3.9,3.9
				C156,447.5,157.8,449.2,160,449.2"/>
			<path class="st0" d="M160.5,449.6h-1.2l-1.2,5.7c-0.1,0.4-0.3,1.1-0.3,1.5c0,1,1,2,2,2c1.1,0,2.2-1,2.2-2c0-0.3-0.1-0.8-0.3-1.5
				L160.5,449.6z"/>
			<path class="st0" d="M168,455.5c1.2,0,2.1-0.9,2.1-2.1s-0.8-1.7-1.6-2.1c-0.1-0.1-0.2-0.1-0.3-0.2l-4.9-3.2l-0.8,0.8l3.7,5.7
				C166.6,455,167.1,455.5,168,455.5"/>
			<path class="st0" d="M171.5,447.3c1.1,0,2-1,2-2c0-1.1-1-2-2.1-2c-0.4,0-1.2,0.1-1.5,0.2l-5.6,1.1v1.2l5.6,1.3
				c0.1,0,0.3,0,0.4,0.1l0,0v-0.1v0.1C170.7,447.2,171.1,447.3,171.5,447.3"/>
			<path class="st0" d="M168.4,439.3L168.4,439.3c0.8-0.5,1.6-1,1.6-2.2c0-1.1-0.9-2-2-2c-1.3,0-1.8,0.9-2.2,1.6
				c-0.1,0.1-0.1,0.2-0.2,0.3l-3.1,4.8l0.8,0.8l4.7-3C168.2,439.4,168.3,439.4,168.4,439.3"/>
			<path class="st0" d="M160.5,441l1.2-5.6c0-0.1,0-0.2,0.1-0.4c0.1-0.4,0.2-0.8,0.2-1.1c0-1.1-1-2.1-2.2-2.1
				c-0.9,0-1.6,0.5-1.9,1.3c-0.2,0.6-0.1,0.9,0,1.4l1.4,6.4L160.5,441L160.5,441z"/>
			<path class="st0" d="M151.6,451.1L151.6,451.1c-0.1,0.1-0.2,0.1-0.3,0.2c-0.7,0.4-1.5,1-1.5,2.1s0.9,2,2,2c1,0,1.5-0.4,2-1.2
				l3.6-5.5l-0.9-0.7L151.6,451.1z"/>
			<path class="st0" d="M466,444.6l-5.5-1c-0.1,0-0.3,0-0.4-0.1c-0.4-0.1-0.9-0.2-1.1-0.2c-1,0-2.1,0.7-2.1,1.9c0,0.9,0.5,1.7,1.3,2
				c0.3,0.1,0.5,0.2,0.7,0.2s0.5,0,0.7-0.1l6.4-1.6V444.6z"/>
			<path class="st0" d="M464.6,436.9c-0.1-0.1-0.2-0.3-0.2-0.4l0,0c-0.4-0.7-0.9-1.5-2.1-1.5s-2.1,0.9-2.1,2c0,1.2,1,1.8,1.8,2.3
				l5,3.1l0.7-0.8L464.6,436.9z"/>
			<path class="st0" d="M470.4,449.2c2.1,0,3.8-1.8,3.8-4c0-2.1-1.8-3.8-3.9-3.8s-3.9,1.8-3.9,3.9
				C466.5,447.5,468.2,449.2,470.4,449.2"/>
			<path class="st0" d="M470.9,449.6h-1.2l-1.2,5.7c0,0.1,0,0.1,0,0.2h0.1h-0.1c-0.1,0.4-0.2,0.9-0.2,1.2c0,1,1,2,2,2
				c1.1,0,2.2-0.9,2.2-2c0-0.4-0.1-1-0.2-1.4L470.9,449.6z"/>
			<path class="st0" d="M481.9,443.2c-0.4,0-1.3,0.2-1.5,0.2l-5.6,1.1v1.2l5.6,1.3c0.1,0,0.2,0,0.4,0.1c0.3,0.1,0.8,0.2,1.2,0.2
				c1,0,2-1,2-2C484,444.2,483,443.2,481.9,443.2"/>
			<path class="st0" d="M479,451.3L479,451.3c-0.1-0.1-0.2-0.1-0.3-0.2l-4.9-3.1l-0.8,0.7l3.7,5.7c0.4,0.6,0.9,1,1.8,1
				c1.1,0,2.1-0.9,2.1-2.1C480.6,452.2,479.8,451.7,479,451.3"/>
			<path class="st0" d="M478.9,439.3L478.9,439.3c0.8-0.5,1.6-1,1.6-2.2c0-1.1-0.9-2-2-2c-1.3,0-1.8,0.8-2.2,1.6
				c-0.1,0.1-0.1,0.2-0.2,0.3l-3.1,4.8l0.8,0.8l4.7-3C478.7,439.4,478.8,439.3,478.9,439.3"/>
			<path class="st0" d="M462,451.1L462,451.1c-0.1,0.1-0.2,0.1-0.3,0.2c-0.7,0.4-1.5,1-1.5,2.1s0.9,1.9,2,1.9c1,0,1.5-0.4,2-1.2
				l3.6-5.5l-0.9-0.7L462,451.1z"/>
			<path class="st0" d="M471,440.9l1.2-5.6c0-0.1,0-0.2,0.1-0.3c0.1-0.4,0.2-0.9,0.2-1.2c0-1.1-1-2.1-2.1-2.1
				c-0.9,0-1.6,0.6-1.9,1.3c-0.2,0.6-0.1,1,0,1.5l1.4,6.3L471,440.9L471,440.9z"/>
			<path class="st0" d="M290.1,124.6l2.8-11.3c0.4,0.8,1.6,3.1,5.2,10.4L290.1,124.6z M235.1,119.5L235.1,119.5
				c0.6-0.2,1.3-0.4,1.7-0.4c1.3-0.2,1.8,0.3,2.3,1.6c0.6,1.4,1,2.5,3.2,9.1l2.8,8.3l0.2,0.7c1.3,3.8,2.4,7.1,2.8,8.9
				c0.3,1.3,0.3,2.1-0.2,2.4l-1.5,0.7c-0.2,0.1-0.8,0.3-0.9,0.8c-0.1,0.4,0.2,0.7,0.4,0.9c0.1,0.1,0.3,0.2,0.5,0.2s0.5-0.1,0.8-0.2
				l5.6-2.1l6.5-2.1c0.5-0.2,0.8-0.4,1-0.7c0.1-0.2,0.1-0.4,0-0.7c-0.3-0.5-0.9-0.5-1.2-0.4l-2.2,0.6c-0.5,0.1-1.3,0-1.9-1.6
				c-0.8-1.8-1.9-5.2-3.3-9.2l-1.1-3.4c1.8,1.2,13.7,8.3,16.3,9.4c2.6,1.1,4.2,1.7,6.9,1l3.1-1c0,0,2.7-0.8,7.7-1.4l5-0.4
				c0.4,0,0.8-0.1,1-0.4c0.1-0.2,0.2-0.4,0.2-0.7c0-0.2-0.1-0.4-0.3-0.6s-0.6-0.2-1-0.2l-0.7,0.1c-0.6,0.1-1,0-1.2-0.2
				c-0.2-0.1-0.3-0.3-0.3-0.7c0-0.5,0-1.6,0.4-2.8l1.8-7c0,0,0,0,0-0.1l10.5-1.2l0,0l0,0l4.9,9.5c0.1,0.1,0.1,0.2,0.1,0.2v0.1
				c0,0,0,0,0,0.1c0,0,0,0-0.1,0l0,0c-0.2,0.1-1,0.2-0.9,1s0.9,0.7,1.7,0.6l9.1-0.9c1.6-0.2,2.1-0.3,2.4-0.7l0,0
				c0.1-0.1,0.1-0.3,0.1-0.5s-0.1-0.3-0.1-0.4c-0.1-0.2-0.4-0.4-1-0.3h-1.9c-1-0.1-2.3-0.8-4.4-4.4l-15-27.6c-0.6-1-1-1.7-1.8-1.6
				s-1.1,0.9-1.5,2.4l-8.7,31.1c-0.4,1.6-0.9,3-1.8,3.7c-1,0.5-3.3,0.3-3.3,0.3c-2.5-0.1-5-1.3-7.4-2.4l-0.5-0.2
				c-2.2-1-13.3-7-16.3-8.8c1.3-2.6,5.4-10.9,6.2-12.6c1.1-2.2,2.3-3.7,3.6-4.9c0.7-0.6,1.7-1.1,2.3-1.3c0.2-0.1,0.4-0.2,0.5-0.3
				c0.2-0.1,0.3-0.4,0.3-0.7c0-0.4-0.4-0.8-0.8-0.8l0,0c-0.2,0-0.5,0.1-0.7,0.1l-5.2,1.9l-4.7,1.4c-0.2,0-0.3,0.1-0.4,0.2
				c-0.3,0.1-0.5,0.4-0.5,0.8c0,0.2,0.1,0.5,0.3,0.6c0.3,0.3,0.7,0.3,1,0.3c0.1,0,0.3,0,0.4,0.4c0,0.1,0,0.2,0,0.3
				c0,0.6-0.4,1.7-0.9,3l-0.2,0.5c-0.4,1-1.8,4-3.7,8.1l-1.9,4.2l-0.4-1.3c-2.3-6.7-2.7-7.9-3.1-9.3c-0.2-0.6-0.2-1-0.2-1.3
				c0-0.6,0.2-0.9,0.8-1.2l1.2-0.5c0.1,0,0.5-0.2,0.7-0.5h0.1v-0.4c0-0.3-0.1-0.5-0.3-0.6l-0.1-0.1c-0.3-0.1-0.7-0.1-1.3,0.1l-5.3,2
				l-6.4,2c-0.5,0.2-1.4,0.5-1.1,1.3C233.9,119.6,234.3,119.8,235.1,119.5"/>
			<path class="st0" d="M312.1,535.3c-3.6-0.1-6.7-1.5-9.1-4c-3-3.2-4.6-8.1-4.4-13.6c0.2-5.2,1.5-9,4-11.4c2.3-2.1,5.2-2.6,7.2-2.6
				c0.1,0,0.3,0,0.4,0c3.3,0.1,6.3,1.4,8.6,3.9c2.9,3.1,4.5,7.8,4.3,13.2l0,0c-0.1,4.4-1.4,14.5-10.6,14.5
				C312.3,535.3,312.2,535.3,312.1,535.3 M311.7,500.5L311.7,500.5c-13.7-0.4-20.3,9.2-20.6,18.4c-0.1,4.8,1.4,9.6,4.3,13.1
				c3.4,4.1,8.5,6.3,14.6,6.5c0.3,0,0.6,0,0.9,0c5.4,0,10.2-1.8,13.7-5.1c3.7-3.5,5.9-8.5,6.1-14.1
				C331,508.1,323.7,500.9,311.7,500.5"/>
			<path class="st0" d="M376.2,527.7L376.2,527.7c-0.4,0.1-2.4,0.4-3.1,0.5c-1.2,0.1-1.5-0.3-2-1.7c-0.7-2-1.7-6-2.7-10.2l-2.1-8.5
				c-1.4-5.6-2.2-9.5-2.6-11.2l-0.2-0.8c-0.1-0.5-0.3-0.9-0.6-1c-0.2-0.1-0.4-0.2-0.7-0.1c-0.5,0.1-0.9,0.6-1.3,1
				c-1.3,1.6-8.5,9.4-8.8,9.6l-0.1,0.1c-0.1,0.2-0.5,0.6-0.4,1.2c0,0.1,0.2,0.4,0.6,0.6c0.3,0.1,0.7,0,1.1-0.3l1.2-0.9
				c0.9-0.7,2.9-2.4,3.4-2.5c0.2,0,0.3-0.1,0.6,1.1v0.1c0.1,0.3,0.4,1.4,1.5,6l1.8,7.3c1.1,4.4,2,8.3,2.4,10.3
				c0.2,1.4,0.1,1.9-1,2.4c-0.8,0.4-3,1.1-3.5,1.2c-0.2,0-0.4,0.2-0.5,0.4c-0.1,0.1-0.2,0.4-0.1,0.8c0.1,0.3,0.3,0.6,0.9,0.6
				c0.2,0,0.4,0,0.5-0.1l7.8-2.1l7.7-1.8c0.4-0.1,0.7-0.2,0.9-0.6c0.2-0.4,0.2-0.7,0-1C376.8,527.7,376.2,527.7,376.2,527.7"/>
			<path class="st0" d="M381.6,499.3c-0.4-0.3-0.7-0.7-1-1.1l0,0l-0.1-0.1c-0.1-0.2-0.3-0.5-0.4-0.8c-0.3-0.7-0.4-1.4-0.4-2.2
				c0-0.6,0.1-1.3,0.4-1.8c0.5-1.2,1.5-2.2,3-2.8c2.6-1.1,5.2,0.2,6.4,3c1.6,3.8-0.1,6.5-1.3,7.8c-3.2-0.4-5.2-1-6.5-2H381.6
				L381.6,499.3z M398.4,516.9c-0.6,1.5-1.8,2.6-3.3,3.2c-3.3,1.4-7.1-0.3-8.6-3.9c-1.9-4.5,0.1-8.2,1.5-10
				c4.5,0.6,8.6,1.2,10.3,5.4C399,513.4,399,515.3,398.4,516.9 M392.2,501.4C392.2,501.4,392.2,501.3,392.2,501.4
				c1.2-1.2,4.7-5.5,2.6-10.6c-0.8-1.9-2-3.1-3.7-3.8c-2.3-1-5.4-0.8-8.6,0.6c-7.1,2.9-7.9,7.9-7.9,9.9c0,1,0.2,2,0.6,2.9
				c1.3,3.2,4.2,5,9.1,5.6c-0.4,0.5-0.9,1-1.3,1.5c-1.9,2.5-3,5.1-3,7.7c0,1.3,0.2,2.6,0.7,3.7c1,2.3,2.6,4,4.8,4.9
				c1.2,0.5,2.6,0.8,4.1,0.8c2,0,4.1-0.5,6.3-1.4c4.8-2,6.9-5,7.8-7.2c1.1-2.6,1.1-5.4,0-7.9C401.4,502.5,395.1,501.7,392.2,501.4"
				/>
			<path class="st0" d="M431.6,502.4L431.6,502.4c-0.2,0-0.4,0-0.6,0.1c-0.3,0.2-2.1,1.1-2.7,1.3c-1.2,0.4-1.6,0.1-2.4-1
				c-1.2-1.6-3.1-4.8-5.2-8.2l-5-8.2l-5.8-10.1l-0.3-0.6c-0.3-0.5-0.6-0.8-1-0.9c-0.9-0.1-1.5,1.2-1.6,1.5
				c-0.8,1.8-5.4,11.5-5.6,11.8c-0.3,0.5-0.3,0.9,0,1.3c0.3,0.3,0.6,0.4,0.8,0.4c0.5,0,0.9-0.6,1-0.6c0.1-0.1,0.2-0.3,0.9-1.3
				c0.5-0.7,1.9-2.9,2.5-3.3l0.2-0.1c0.2,0.1,0.4,0.5,0.7,1l7.1,11.7c2,3.4,4.4,7.2,5.3,9.2c0.6,1.3,0.6,1.8-0.2,2.6
				c-0.7,0.6-2.5,1.9-3,2.2c-0.4,0.2-0.6,0.7-0.2,1.2c0.2,0.3,0.4,0.4,0.7,0.4c0.3,0,0.6-0.2,0.8-0.3l6.9-4.3l6.8-3.9
				c0.4-0.2,0.6-0.4,0.7-0.8s-0.1-0.6-0.1-0.7C432,502.6,431.8,502.5,431.6,502.4"/>
			<path class="st0" d="M451,486.1c-0.1,1.2-0.6,2.2-1.5,2.9c-1,0.8-2.2,1.2-3.6,1.1c-3.5-0.3-8.3-3.7-12.8-9.1
				c-4.3-5.2-6.6-9.8-6.3-12.9c0.1-1.2,0.6-2.2,1.4-2.9c0.9-0.7,1.9-1.1,3.1-1.1c0.2,0,0.4,0,0.6,0c4.2,0.4,9.5,4.9,12.9,9
				C449.1,478.4,451.3,483,451,486.1 M435.6,459.4L435.6,459.4c-3.1-0.3-5.9,0.7-8.6,2.9c-6.8,5.7-6,14.6,2.2,24.3
				c4.4,5.2,9.5,8.2,14.2,8.2c2.7,0,5.2-1,7.5-2.9c2.7-2.3,4.2-5,4.5-8.2c0.4-4.9-1.9-10.4-6.7-16.1
				C446.8,465.3,441.7,460,435.6,459.4"/>
			<path class="st0" d="M106.6,275.3c1.7-7.7,9.6-11.6,19.2-9.6c13.1,2.8,12.9,10.3,12.3,13.4c-1.7,8.1-9.9,12.3-19.8,10.2
				C106.1,286.6,105.8,279.4,106.6,275.3 M118.2,296.8L118.2,296.8c1.4,0.3,2.9,0.5,4.3,0.5c3.4,0,6.6-0.8,9.3-2.4
				c4.6-2.6,7.8-7.2,9.1-13.2c1.2-5.7,0.4-11-2.4-15.3c-2.8-4.3-7.3-7.3-12.8-8.5c-5.1-1.1-9.8-0.4-13.6,2.1
				c-4.1,2.7-7,7.2-8.3,13.3c-1.3,6.1-0.4,11.7,2.7,16.1C109.2,293.1,113.5,295.8,118.2,296.8"/>
			<path class="st0" d="M116.7,238.4L116.7,238.4c0.4-0.1,0.6-0.5,0.7-0.8l0.8-1.3c0.8-1.1,1.4-1.1,2.8-0.6c1.4,0.6,2.6,1.1,9.1,4.2
				l7.6,3.5c3.6,1.7,7.2,3.4,9,4.5c1.2,0.8,1.7,1.2,1.6,1.8c0,0.1-0.2,0.7-0.4,1.1c-0.1,0.2-0.1,0.4-0.2,0.5l0,0
				c-0.2,0.5-0.2,0.8-0.1,1c0,0,0.1,0.3,0.4,0.5c0.1,0,0.2,0.1,0.3,0.1s0.2,0,0.3-0.1c0.3-0.1,0.5-0.4,0.8-0.9l1.3-3l1.1-2.4
				l3.3-6.6l2.8-5.7c1-2.2,1.1-2.8,0-3.8s-4.2-2.8-4.7-3c-0.4-0.2-1.1-0.5-1.5,0.2c-0.2,0.5,0,1,0.6,1.3c0.7,0.5,1.6,1.4,1.9,2.1
				c0.6,1.4,0,2.9-1.1,5.2c-1.6,3.3-2.3,4.1-3.1,4.5c-1,0.5-4.3-1.1-9.2-3.4l-9-4.2c-5.3-2.5-6.4-3-7.6-3.7
				c-1.5-0.8-1.7-1.3-1.5-2.2l0.6-1.7c0.2-0.3,0.3-0.8,0.2-1.1c-0.1-0.2-0.2-0.4-0.4-0.5c-0.8-0.4-1.2,0.6-1.4,1l-2.6,5.9l-2.9,5.8
				c-0.3,0.6-0.3,1-0.2,1.3C115.8,238.2,116.2,238.6,116.7,238.4"/>
			<path class="st0" d="M217.6,149.1l2.8,0.4c4.6,0.6,6.3,2,7.5,3.9c1.2,2.1,0.7,5.3-2.6,7.3c-1.6,1-4.8,2.1-7.7-0.6
				c-0.6-0.6-1.2-1.3-1.5-1.8c-0.1-0.3-0.4-0.6-0.8-0.7c-0.2-0.1-0.5,0-0.7,0.1c-0.8,0.4-0.3,1.5-0.1,2l3,5.5
				c0.5,0.8,0.8,1.2,1.6,1.2c0.1,0,0.3,0,0.5,0c2.2-0.2,4.2-1,6.7-2.5c2.7-1.6,4.5-3.4,5.7-5.7c0.7-1.5,1.1-3,1.1-4.6
				c0-2.4-0.9-4.3-1.5-5.2c-2.4-4-5.8-5.7-13.2-6.7l-1.6-0.2c-4.6-0.5-6.4-1.3-7.4-3.1c-0.4-0.7-0.6-1.5-0.6-2.2
				c0-1.6,1-3.1,2.9-4.2c2.4-1.4,4.1-1,5.2-0.6c1.4,0.5,2.3,1.6,2.4,1.9c0.3,0.4,0.5,0.7,0.8,0.8c0.2,0,0.8,0,1-0.6
				c0.1-0.4,0-0.8-0.5-1.6l-2.4-4.3l-0.4-0.7c-0.4-0.7-1.1-0.4-1.4-0.4c-1.5,0.4-3.4,1-5.9,2.5c-3.1,1.9-5.3,4.4-6,7.3
				c-0.6,2.3-0.2,4.6,1,6.6C207.7,146.4,211.2,148.3,217.6,149.1"/>
			<path class="st0" d="M355.9,142.3c0.3,0,0.5-0.1,0.7-0.2c0.4-0.3,0.3-0.7,0.2-1V141c-0.2-0.2-0.5-0.4-0.9-0.5l-2.3-0.6
				c-1.1-0.3-1.2-1-1.2-2.1c0.1-2,0.8-5.6,1.5-9.9l1.4-8.6c1.1-6.9,1.4-8.4,1.7-9.8c0.4-1.7,0.8-2,1.7-2l1.4,0.1
				c0.8,0.1,1.2-0.1,1.3-0.7v-0.1l-0.1-0.3l-0.1-0.1c-0.2-0.3-0.5-0.4-1.2-0.5l-5.7-0.8l-6-1.1c-0.7-0.1-1.1-0.1-1.4,0.1
				c-0.1,0.1-0.2,0.3-0.3,0.5c0,0.3,0,0.6,0.2,0.8c0.2,0.2,0.5,0.3,0.8,0.4c0.4,0.1,1,0.2,1.6,0.4c0.8,0.3,1,1,0.9,2.4
				c-0.1,1.5-0.3,2.6-1.4,9.2l-1.5,8.9c-0.7,4.4-1.4,8.2-1.9,10.1c-0.4,1.5-0.8,1.8-1.3,1.8l-1.7-0.1c-0.8-0.1-1.2,0.1-1.3,0.6
				c-0.1,0.3,0,1,1.2,1.1l5.9,0.8l7.3,1.4C355.6,142.3,355.8,142.3,355.9,142.3"/>
			<path class="st0" d="M412.5,164.8c0,0.4,0.1,0.7,0.4,1c1.1,1.9,2.7,3.4,5.1,5.1c2.6,1.8,5,2.7,7.5,2.8c0.1,0,0.2,0,0.3,0
				c4.7,0,7.3-2.8,8.4-4.5c2.6-3.8,2.8-7.7,0.5-14.7l-0.5-1.6c-1.4-4.4-1.5-6.3-0.3-8c1.5-2.2,4.2-2.5,6.8-0.7
				c2.3,1.6,2.6,3.3,2.7,4.5c0.1,1.5-0.5,2.7-0.7,3c-0.1,0.1-0.5,0.7-0.3,1.1c0,0.2,0.2,0.4,0.4,0.5c0.2,0.1,0.6,0.3,1.1-0.1
				c0.2-0.2,0.5-0.5,0.8-0.9l2.9-3.9l0.5-0.6c0.4-0.6-0.1-1.2-0.3-1.4c-0.9-1.1-2.3-2.6-4.8-4.3c-3-2.1-6.2-2.9-9.1-2.4
				c-2.3,0.4-4.3,1.7-5.6,3.7c-2.4,3.5-2.6,7.4-0.7,13.6l0.8,2.7c1.4,4.4,0.9,6.6-0.4,8.5c-1.4,2-4.5,2.9-7.7,0.7
				c-1.5-1-3.9-3.4-2.7-7.3c0.3-0.8,0.7-1.7,1-2.1c0.1-0.2,0.4-0.6,0.3-1c0-0.2-0.2-0.4-0.4-0.5c-0.8-0.5-1.5,0.5-1.8,0.8l-3.7,5
				C412.7,163.9,412.5,164.3,412.5,164.8"/>
			<path class="st0" d="M472.6,174c0.5,0.5,1.5,1.7,3.7,4.1c1.9,2.1,2.4,3.4,2.4,4.2c0,0.4-0.1,0.8-0.4,1.1l-0.3,0.4
				c-0.3,0.4-0.6,0.7-0.6,1.1c0,0.2,0.1,0.4,0.3,0.6c0.5,0.5,1.1,0,1.4-0.2l0.1-0.1v-0.1l0,0c0.6-0.5,2.9-2.7,3.9-3.6
				c0.3-0.3,0.7-0.7,0.7-1.1c0-0.2-0.1-0.4-0.3-0.6l-1.1-0.8c-0.1-0.1-1.4-1.2-2.3-2l-13.2-13.5c-1.1-1.1-2.3-2.5-3.1-3.5
				c-0.4-0.5-0.6-0.9-0.7-1.3l-0.3-0.5l-0.1-0.1c-0.5-0.5-1.2-0.1-1.6,0.2c-0.3,0.2-4.1,2.6-4.7,3.1c-0.4,0.4-0.5,0.6-0.5,0.9v0.1
				c0.1,0.4,0.3,0.6,0.5,0.6c0.5,0.2,1-0.1,1.1-0.1c0.2-0.1,0.7-0.4,1.6-0.5c1.1-0.2,2,0.5,3.8,2.2l4.7,4.6
				c-2,1.9-13.5,13.2-13.6,13.3l-0.5,0.5c-2.8,2.8-5.3,5.2-6.8,6.3c-1.1,0.9-1.8,1.1-2.2,0.8l-1.3-1c-0.6-0.6-1-0.7-1.4-0.3
				c-0.2,0.1-0.3,0.3-0.3,0.5c0,0.5,0.4,1,0.6,1.1l4.2,4.2l5.1,5.4c0.4,0.4,0.7,0.6,1,0.6s0.5-0.1,0.6-0.2c0.2-0.2,0.2-0.4,0.2-0.5
				c0-0.3-0.1-0.6-0.5-0.9l-1.5-1.8c-0.2-0.3-0.3-0.6-0.3-0.9c0-0.6,0.4-1.1,0.9-1.7c1.3-1.6,4.2-4.5,7.1-7.2
				C469.1,177.5,471.8,174.8,472.6,174"/>
			<path class="st0" d="M467.8,214.5L467.8,214.5c-1.3,0.7-1.8,0.7-2.2,0.3l-1.1-1.3c-0.2-0.3-0.4-0.6-0.8-0.7c-0.2,0-0.4,0-0.5,0.1
				c-0.2,0.1-0.4,0.3-0.4,0.6c-0.1,0.6,0.4,1.1,0.4,1.1l3.4,4.8l4,6.2c0.3,0.5,0.7,0.7,1.1,0.7c0.2,0,0.3,0,0.5-0.1s0.6-0.6,0-1.5
				l-1.2-2.1c-0.5-1-0.2-1.6,0.7-2.3c1.5-1.2,4.5-3.2,8.4-5.9l8.5-5.7c4.6-3.1,5.6-3.8,6.8-4.5c1.5-0.9,2-0.8,2.6-0.2l0.9,1.1
				c0.6,0.8,1.1,0.7,1.5,0.5c0.2-0.1,0.3-0.3,0.3-0.5c0.1-0.3-0.1-0.7-0.4-1.2l-3.3-4.7l-3.3-5.2c-0.3-0.4-0.9-1.3-1.6-0.9
				c-0.2,0.1-0.3,0.3-0.4,0.5c-0.1,0.5,0.2,1,0.3,1c0.4,0.6,0.6,1,0.8,1.4c0.3,0.8,0,1.4-1.1,2.3c-1.1,0.8-2.1,1.5-6.8,4.7l-8.9,6
				C472.3,211.7,469.5,213.6,467.8,214.5"/>
			<path class="st0" d="M503.6,222.3c0.2,0,0.8-0.1,1.7,0.1c1.1,0.2,1.7,1.2,2.8,3.4l2.8,5.9c-2.5,1.1-16.7,7.3-17.3,7.6l-0.1,0.1
				c-3.9,1.7-7.3,3.2-9.1,3.8c-1.4,0.4-2.1,0.4-2.4,0c0,0,0,0-0.9-1.5c-0.2-0.4-0.5-0.7-0.8-0.7c-0.4-0.1-0.8,0.2-0.8,0.2
				c-0.4,0.3-0.2,0.9,0,1.4l2.5,5.4l2.9,6.8c0.2,0.5,0.5,0.8,0.8,0.9h0.1c0.1,0,0.1,0,0.2,0c0.3,0,0.5-0.1,0.6-0.3
				c0.3-0.4,0.1-1.1,0.1-1.2l-0.8-2.3c0-0.2-0.1-0.3-0.1-0.5c0-0.7,0.5-1.1,1.5-1.7c1.7-1,5.1-2.5,9-4.2l1.8-0.8
				c3.9-1.7,13.7-6,15.7-6.9c0.3,0.8,1,2.4,2.1,5.1c0.6,1.5,0.9,2.7,0.9,3.7c0,1.2-0.5,1.7-0.9,1.9l-0.5,0.2c-0.5,0.3-1,0.6-1,1
				c0,0.1,0,0.3,0.1,0.4c0.3,0.7,1.1,0.4,1.5,0.3c0.1,0,5.1-2.1,5.1-2.1c0.5-0.2,0.9-0.4,1-0.8v-0.1v-0.5l-0.8-1.2
				c-0.1-0.1-0.9-1.6-1.5-2.8l-7.6-17.2c-0.6-1.3-1.2-2.9-1.7-4.4c-0.2-0.6-0.2-1.1-0.2-1.5l-0.1-0.6v-0.1c-0.3-0.7-1.1-0.5-1.5-0.4
				s-4.7,1-5.5,1.3c-0.3,0.1-1.1,0.5-0.8,1.3C502.5,222.3,503,222.4,503.6,222.3"/>
			<path class="st0" d="M506.4,270.5c-6,1.1-9.8,3.2-11.9,6.6c-2.7,4.3-1.8,9.2-1.4,11.2c0.5,2.8,1.6,6.3,5.3,9.3
				c2.2,1.8,5,2.7,8.5,2.7c1.9,0,3.9-0.2,6.7-0.7l5.2-0.9c6.9-1.3,8.2-1.5,9.7-1.7c1.7-0.2,2.1,0.1,2.5,0.9l0.4,1.3
				c0.1,0.5,0.2,0.8,0.6,1c0.2,0.1,0.7,0.2,1.1-0.2c0.2-0.3,0.2-0.7,0.1-1.3l-1.1-5.3c0-0.1-0.6-3.6-0.9-5.4
				c-0.1-0.4-0.2-0.7-0.3-0.9c-0.2-0.3-0.5-0.5-0.8-0.4c-0.3,0-0.5,0.2-0.5,0.3c-0.2,0.3-0.2,0.7-0.1,1l0.2,1.6
				c0,1.3-0.5,1.7-1.9,2.1c-1.4,0.3-2.5,0.6-8.8,1.7l-6.9,1.3c-5.1,0.9-8.9,1.4-11.7-0.5c-2.5-1.7-3.3-4.5-3.5-5.7
				c-0.3-1.6-0.4-3.6,0.8-5.9c1.6-2.8,4.6-4.4,10.5-5.5l6.8-1.2c6.9-1.3,8.1-1.5,9.6-1.7c1.7-0.2,2.2,0.1,2.5,0.9l0.4,1.3
				c0,0.2,0.2,0.7,0.6,0.9c0.2,0.1,0.3,0.1,0.4,0.1c0.3,0,0.4-0.1,0.6-0.3c0.2-0.3,0.1-0.8,0-1.3l-1.2-5.7l-1.1-6.8
				c-0.1-0.4-0.3-1.5-1.2-1.3c-0.8,0.2-0.7,1.1-0.6,1.4c0.1,0.6,0.2,1.4,0.2,1.7c0,1.4-0.5,1.7-1.9,2.1s-2.5,0.6-9.5,1.8
				L506.4,270.5z"/>
			<path class="st0" d="M533.4,315.4c-0.5-0.1-4.7-1.2-5.5-1.3c-0.5,0-0.8,0-1.1,0.3c0,0-0.3,0.4-0.2,0.8c0.1,0.3,0.4,0.6,0.8,0.7
				c0.5,0.1,1,0.4,1.5,0.8c0.7,0.6,1,1.4,1,3.7v0.5c0,0-0.1,5.1-0.1,6.6c-2.6-0.1-16.1-0.7-19.1-0.9h-0.2c-4.2-0.2-7.8-0.4-9.7-0.7
				c-1.4-0.2-2-0.5-2.1-1.1l-0.1-1.7V323c0-0.4-0.2-0.7-0.4-0.9c-0.4-0.2-0.8,0-0.9,0h-0.1c-0.3,0.2-0.4,0.6-0.4,1.2l-0.1,5.9
				l-0.5,7.4c0,0.5,0.1,0.9,0.3,1.2c0.2,0.1,0.6,0.4,1.1,0c0.2-0.2,0.3-0.5,0.4-1l0.3-2.4c0.2-1.1,1-1.3,2.2-1.4
				c1.8-0.1,5.1,0,8.9,0.2h1.2c13.9,0.7,17.8,0.8,19,0.9c-0.1,0.7-0.2,2.1-0.4,5.5c-0.3,4.3-1.7,5-2.5,5h-0.5c-0.5,0-1.4,0-1.4,1
				c0,0.7,0.7,0.8,1.2,0.9c0,0,1.6,0.1,3,0.2c2.4,0.2,2.5,0.2,2.5,0.2c0.1,0,0.3,0,0.4,0c0.3,0,0.6,0,0.9-0.2l0.3-0.5l-0.2-1.4
				c0-0.1,0-0.7-0.1-3.2l0.9-18.7c0.1-1.5,0.2-3.3,0.4-4.7c0.1-0.6,0.3-1,0.4-1.3l0.2-0.6v-0.1C534.6,315.8,533.9,315.6,533.4,315.4
				"/>
			<path class="st0" d="M528.5,362.3c-0.4-0.4-0.8-0.3-1-0.2c-0.3,0.1-0.4,0.4-0.6,0.9c-0.2,0.6-0.4,1.3-0.6,1.7
				c-0.6,1.2-1.3,1.3-2.6,1c-1.4-0.2-2.5-0.5-8.6-2.1l-9.4-2.4c-3.9-1-7.6-1.9-9.4-2.6c-1.1-0.5-1.9-0.9-1.9-1.5l0.2-1.6
				c0.1-0.5,0.1-0.8-0.1-1.1c-0.3-0.4-0.8-0.3-1.1-0.2c-0.3,0.2-0.5,0.5-0.6,1.1l-0.7,3.2l-0.6,2.6l-1.3,4.7l-2.2,7.9
				c-0.5,1.8-0.7,2.5,0.8,3.3c0.9,0.5,4,1.7,5,1.9c0.4,0.1,0.8,0.2,1.2,0c0.3-0.3,0.4-0.6,0.3-0.8c-0.1-0.5-0.7-0.8-0.9-0.9
				c-1.7-0.8-2.4-1.4-2.6-2.6c-0.2-1.3,0.3-3.2,0.5-4.3c1.2-4.8,2-4.8,4.7-4.2l10.7,2.7h0.1c-0.3,1.3-1.4,5.5-1.7,6.3
				c-0.5,1.3-1,1.8-2,1.8l-1.2-0.1l-0.4-0.1c-0.6-0.1-0.9,0.3-1,0.7c-0.2,0.8,0.7,1.1,1.1,1.2c0.1,0,2.2,0.7,3,1
				c0.1,0,1.7,0.6,2.9,1l0.4,0.2c0.3,0.1,0.5,0.1,0.7-0.1c0.2-0.1,0.3-0.3,0.3-0.5c0.1-0.4-0.1-0.8-0.4-1.2
				c-0.3-0.5-0.3-1.1-0.1-2.1c0.1-0.7,0.8-3.4,1.7-7.2h0.1l11.5,2.9h0.1c-0.3,1.2-1.5,5.6-1.8,6.3c-0.9,2.2-1.5,2.3-2.1,2.3
				c-0.5,0.1-1.1,0-1.6-0.1l0,0H517c-0.6-0.1-0.8,0.3-0.9,0.4v0.1v0.1l0,0c-0.1,0.7,0.5,1,0.7,1.1l2.1,0.7l0.9,0.3l2.5,1l0.4,0.2
				h0.1c0.1,0,0.2,0,0.3,0c0.4,0,0.6-0.2,0.7-0.6v-0.5v-0.2l0.2-2c0.2-0.8,2.1-8.4,2.7-10.9l0.9-3.1l1.1-4
				C528.8,363,528.8,362.7,528.5,362.3L528.5,362.3z"/>
			<path class="st0" d="M517.2,401.1L517.2,401.1c-0.3-0.2-3.8-3-4.6-3.3c-0.4-0.2-0.7-0.3-1-0.2c-0.5,0.2-0.6,0.6-0.5,0.8
				c0,0.4,0.3,0.7,0.5,0.9c0,0,0.5,0.3,1,1.3c0.2,0.3,0.3,0.7,0.3,1c0,0.8-0.4,1.8-1,3.3l-0.2,0.4c-0.8,1.8-2.1,4.6-2.6,5.6
				l-9.2-4.5c-6.1-3-7.5-3.6-7.8-3.8l0,0l-0.6-0.3c-3.6-1.8-6.8-3.3-8.4-4.3c-1.1-0.7-1.6-1.2-1.6-1.6c0-0.1,0-0.2,0-0.2l0.6-1.5
				c0.1-0.3,0.2-0.5,0.2-0.8c0-0.1,0-0.1,0-0.2v-0.1l-0.1-0.1c-0.3-0.4-0.7-0.4-0.9-0.4h-0.1c-0.3,0.1-0.6,0.4-0.8,0.9l-1.6,3.4
				l-0.9,2l-1,2l-2.3,4.6c-0.2,0.4-0.5,1.3,0.2,1.7c0.2,0.1,0.4,0.1,0.6,0c0.3-0.1,0.5-0.3,0.7-0.7l1.2-2.1c0.6-0.9,1.3-0.8,2.6-0.4
				c1.9,0.6,5.1,2.2,8.9,4.1l0.2,0.1c0,0,0,0,4.4,2.1l0.8,0.4c4.3,2.1,10.4,5.1,12,5.8c-0.3,0.6-1.1,2-2.5,4.8c-2,3.9-3.5,4-4.3,3.7
				l-0.5-0.2c-0.5-0.2-1.3-0.5-1.7,0.3c-0.3,0.7,0.4,1.1,0.7,1.3l0.1,0.1l0,0c0.4,0.3,1.6,0.9,4.7,2.5h0.1c0.3,0.1,0.7,0.3,1,0.3
				s0.5-0.1,0.7-0.4v-0.1v-0.1c0-0.2,0.2-0.7,0.2-0.7l0.1-0.5c0.1-0.2,0.3-0.8,1.2-2.9l8.2-16.9c0.6-1.3,1.5-2.9,2.3-4.1
				c0.3-0.5,0.6-0.8,0.9-1l0.5-0.5l0.1-0.1C518.2,401.9,517.5,401.4,517.2,401.1"/>
			<path class="st0" d="M177.8,192L177.8,192c2.8,3,3.4,3.9,2.9,4.7c-0.3,0.6-1,1.2-1.3,1.5c-0.4,0.3-0.5,0.6-0.5,1
				c0,0.3,0.3,0.8,0.8,0.8l0,0l0,0c0.4,0,0.8-0.3,1.1-0.6l3.1-3.1l0.5-0.5l4.4-3.9c0.3-0.3,1.1-1.1,0.5-1.7
				c-0.6-0.6-1.3,0.1-1.5,0.3c-0.4,0.4-1.1,1-1.9,1.4c-0.8,0.4-2.2-0.4-4.3-2.6l-13.3-13.5c0.2,0,0.4,0,0.5,0
				c2.2,0.2,8.8,0.7,14.9,0.8l19.7,0.5c0.8,0,1.6,0,2.1-0.4h0.3v-0.2c0.1-0.1,0.2-0.3,0.2-0.5c0-0.1,0-0.2-0.1-0.3
				c-0.1-0.3-0.4-0.7-0.8-1.1l-20.2-22c-1.8-2-1.9-2.7-1.5-3.5l0.9-1c0.4-0.4,0.6-0.7,0.6-1c0-0.2-0.1-0.4-0.2-0.5
				c-0.1-0.2-0.3-0.3-0.5-0.3c-0.4,0-0.8,0.3-1.2,0.7l-2.7,2.7l-0.6,0.6l-4.4,3.7c-0.5,0.5-0.8,0.9-0.8,1.3l0,0l0.2,0.5l0.4,0.2h0.1
				l0,0c0.3,0,0.6-0.2,0.9-0.5c0.5-0.4,1.2-1.2,1.9-1.4c0.9-0.3,1.6-0.1,3.6,1.9l14.3,14.4c-1,0-2.7-0.1-3.5-0.2c-0.3,0-0.5,0-0.5,0
				l-10.1-0.4c-10.2-0.2-21-0.9-21.1-0.9H160c-0.9-0.1-1.5-0.1-2,0.3c-0.8,0.7,0.2,1.8,0.6,2.2L177.8,192z"/>
			<path class="st0" d="M135,201.3c0.1,0.3,0.4,0.4,0.7,0.4c0.2,0,0.3-0.1,0.4-0.1c0.2-0.1,0.4-0.3,0.6-0.6c0.3-0.5,0.7-0.9,1-1.2
				c0.6-0.6,1.3-0.5,2.6,0.2c1.2,0.7,2.2,1.4,7.2,4.8l8.1,5.6c3.6,2.5,6.7,4.6,8.2,5.9c1.2,1,1.3,1.4,1.1,1.9l-0.8,1.5
				c-0.3,0.4-0.4,0.7-0.3,1c0,0.2,0.3,0.6,0.9,0.6h0.1c0.3,0,0.6-0.3,1-0.8l3.2-5l4.3-6c0.3-0.4,0.4-0.8,0.4-1.1
				c0-0.2-0.2-0.4-0.4-0.5s-0.4-0.2-0.6-0.1c-0.3,0.1-0.6,0.3-0.8,0.6l-1.5,1.9c-0.8,0.8-1.4,0.7-2.4,0.1c-1.7-0.9-4.5-2.9-8-5.3
				l-7.4-5.1c-5.8-4-7-4.8-8.2-5.8c-1.4-1.1-1.5-1.6-1.1-2.4l0.7-1.2c0.5-0.7,0.4-1.2-0.1-1.5c-0.2-0.1-0.4-0.1-0.6-0.1
				c-0.4,0.1-0.7,0.4-1,0.8l-3.2,4.8l-3.6,5c-0.3,0.5-0.5,0.8-0.5,1c0,0.1,0,0.1,0,0.2L135,201.3L135,201.3z"/>
			<path class="st0" d="M118.1,331.2c0,0.1-0.1,0.1-0.4,0.2l-14.4,0.4c-0.2,0-0.2,0-0.2,0s0,0,0-0.1c-0.1-0.4-0.2-1.1-0.2-2.4
				c0-1.7,0.6-3.4,1.8-4.6c1.4-1.5,3.5-2.3,6.2-2.4c0.2,0,0.4,0,0.5,0c3.8,0,5.6,1.5,6.3,2.4c0.6,0.7,0.8,1.3,0.8,3.1
				C118.5,329,118.4,330.4,118.1,331.2 M122.7,337.7c4.2-0.1,7.9-0.2,9.9-0.1c1.4,0.2,2.1,0.3,2.2,0.9l0.2,1.6c0,0.4,0.1,0.8,0.3,1
				c0.1,0.1,0.3,0.2,0.5,0.2c0.1,0,0.3,0,0.4-0.1c0.5-0.2,0.6-0.9,0.5-1.3l-0.3-5.7l-0.1-7c0-0.3,0-0.8-0.4-1.2
				c-0.2-0.1-0.4-0.2-0.6-0.2s-0.4,0.1-0.6,0.2c-0.2,0.2-0.3,0.5-0.2,0.8l-0.1,2.3c-0.1,1-0.6,1.3-2.1,1.5c-1.9,0.3-5.5,0.4-9.6,0.5
				h-1l-0.1-4c0-0.3,0-0.4,0.1-0.5l3.1-2.4l3.3-2.5c3.7-2.9,5.8-4.8,6.9-6.9c0.7-1.4,0.9-2.7,0.8-5.3l-0.1-4.5c0-0.5-0.1-0.8-0.2-1
				l-0.1-0.2h-0.1l0,0c-0.1-0.1-0.3-0.1-0.4-0.1c-0.1,0-0.2,0-0.3,0c-0.2,0-0.6,0.2-0.6,1l-0.1,1.3c-0.1,0.7-0.4,2.5-2.9,5.1
				c-2.4,2.4-5.7,5.2-9.8,8.7l-1.9,1.6c-0.1-0.1-0.2-0.2-0.3-0.3l-0.3-0.3c-3.4-3.7-6.6-5.3-10.3-5.2c-3.6,0.1-6,2.4-6.7,3.7
				c-1.8,2.8-1.9,6.1-1.8,9l0.4,6.7l0.1,6.5c0,0.4,0,1.5,0.9,1.5s0.9-1,0.8-1.3c0-0.6,0-1.4,0.1-1.7c0.2-1.3,0.8-1.6,2.2-1.8
				c1.4-0.1,2.8-0.2,9.2-0.4L122.7,337.7z"/>
			<path class="st0" d="M128.6,374.2l-11.5-1.3c0.8-0.6,3.1-2.1,9.6-6.5L128.6,374.2z M157,412.6c1.2-0.4,2-0.6,2.4-0.1l0.9,1.4
				c0.2,0.4,0.5,0.7,0.7,0.7h0.1c0.5,0,0.8-0.2,0.9-0.3c0.3-0.5,0-1.2-0.2-1.4l-2.8-5.2l-2.9-6.2c-0.2-0.4-0.5-0.7-0.8-0.8
				c-0.2-0.1-0.4-0.1-0.6,0c-0.3,0.1-0.4,0.4-0.4,0.7c0,0.2,0,0.4,0.2,0.6l0,0c0.1,0.2,0.3,0.7,0.8,2l0,0c0,0.1,0.1,0.3,0.1,0.4
				c0,0.6-0.5,1.2-1.4,1.7c-1.7,1-5.1,2.7-8.7,4.5c0,0-2,1-3.2,1.6c1-1.9,6.3-14.7,7.1-17.4c0.7-2.7,1.1-4.4,0.1-6.9l-1.4-2.9
				c-0.4-0.6-0.8-1.8-0.9-2l-1.2-4.4l-0.3-0.9l-1.1-4.9c-0.1-0.4-0.2-0.7-0.6-0.9c-0.2-0.1-0.4-0.1-0.7-0.1c-0.8,0.2-0.6,1-0.5,1.3
				l0.2,0.7c0.3,1.3-0.2,1.5-0.6,1.7c-0.5,0.1-1.6,0.2-2.8,0l-7.2-0.8h-0.1l-2.6-10.2l0,0l0,0l8.8-6.2c0.1-0.1,0.2-0.1,0.3-0.1l0,0
				c0,0,0.1,0.1,0.2,0.4c0.2,0.4,0.6,0.5,1,0.4c0.7-0.2,0.6-1,0.4-1.8l-2.2-8.9l-0.1-0.5c-0.3-1.1-0.4-1.6-1-1.8
				c-0.3-0.1-0.6,0.1-0.7,0.2c-0.3,0.3-0.3,0.9-0.3,1l0.3,1.9c0,1-0.4,2.4-3.8,4.9l-25.3,18.6c-1,0.8-1.5,1.3-1.4,2
				c0.2,0.8,1.1,0.9,2.6,1.2L140,380c1.7,0.2,3.1,0.5,4,1.4c0.3,0.3,0.6,1.8,0.6,3.2c0.2,2.5-0.6,5.2-1.4,7.7l-0.1,0.5
				c-0.7,2.3-5.1,14.2-6.6,17.3c-2.7-0.9-11.4-3.8-13.3-4.5c-2.3-0.8-4-1.7-5.3-2.9c-0.7-0.6-1.3-1.6-1.6-2.1
				c-0.1-0.3-0.3-0.6-0.7-0.7h-0.1h-0.6l-0.4,0.4v0.1c-0.1,0.3,0,0.6,0.2,1.1l2.6,4.9l2.1,4.4c0.2,0.5,0.4,0.7,0.7,0.8h0.1h0.4h0.1
				c0.6-0.3,0.5-1,0.4-1.3c0-0.1-0.1-0.3,0.3-0.5c0.6-0.3,2.1,0.1,3.7,0.5l0.3,0.1c1.1,0.3,4.3,1.3,7.4,2.2l1,0.3
				c2.5,0.8,3.8,1.2,4.5,1.4l-0.7,0.4c-0.5,0.3-0.9,0.5-0.9,0.5l-0.7,0.3c-5.2,2.6-6.4,3.2-7.7,3.7c-1.6,0.7-2.1,0.5-2.6-0.2
				c0-0.1-0.3-0.6-0.5-0.9c-0.1-0.1-0.1-0.2-0.1-0.2l0,0c-0.4-0.9-1-0.7-1.3-0.6c-0.8,0.4-0.3,1.3-0.1,1.7l2.7,5l2.9,6
				c0.3,0.5,0.5,0.9,0.8,1h0.1h0.4h0.1c0.5-0.3,0.6-0.8,0.2-1.5c-0.3-0.5-0.6-1.3-0.7-1.6c-0.3-1.3,0.1-1.8,1.3-2.5s2.2-1.2,8.5-4.4
				l7.9-4C151.7,415,155.1,413.3,157,412.6"/>
			<path class="st0" d="M194.7,468.3c-0.4,1.3-1.7,4.9-3.7,10.7l-0.1,0.2l-6.3-5L194.7,468.3z M193.7,498.9
				c-0.6-0.8-1.1-2.2,0.1-6.2l9.1-30.1c0.3-1.1,0.5-1.9-0.1-2.4s-1.4-0.1-2.7,0.6l-27.9,15.7c-2.3,1.3-3.7,1.8-5.3,0.8l-1.2-0.9
				h-0.1c-0.4-0.2-0.8-0.2-1,0c-0.4,0.2-0.4,0.6-0.4,0.7v0.1c0,0.4,0.3,0.6,0.7,1l3.6,2.8l0.8,0.6l3.8,3.3c0.3,0.2,0.7,0.6,1.1,0.4
				c0.4-0.2,0.5-0.5,0.5-0.7c0.1-0.5-0.4-0.9-0.5-1l-0.6-0.4c-0.5-0.4-0.7-0.7-0.8-1c0-0.2,0.1-0.4,0.2-0.7c0.3-0.4,1.2-1.1,2.2-1.7
				l6.2-3.7c0,0,0,0,0.1,0l8.2,6.6l0,0l0,0l-3.3,10.2c0,0.1-0.1,0.2-0.1,0.3l-0.1,0.1l0,0l0,0l0,0h-0.1c-0.6-0.4-1-0.3-1.3,0.1
				c-0.5,0.6,0.2,1.2,0.8,1.7l7.1,5.8c1.2,0.9,1.6,1.2,2,1.2h0.1c0.4-0.1,0.5-0.3,0.6-0.5c0.1-0.5-0.3-0.9-0.4-1L193.7,498.9z"/>
			<path class="st0" d="M247.5,490.5l1.2,0.5c1,0.5,1.4,0.1,1.6-0.2c0.4-0.8-0.5-1.2-1-1.5l-3.4-1.6l-0.8-0.3l-5-2.7
				c-0.1,0-0.2-0.1-0.3-0.1c-0.5-0.2-1-0.5-1.3-0.1c-0.3,0.3-0.3,0.6-0.3,0.8c0.1,0.5,0.6,0.8,0.7,0.8c0.5,0.2,1.5,0.8,2,1.3
				c0.3,0.3,0.4,0.7,0.4,1c0,0.6-0.3,1.5-1,3c-0.3,0.7-7.2,14.7-8.9,18.3c-0.4-1.3-1.2-3.9-1.2-3.9l-2.9-9.7
				c-3.2-9.8-6.1-20.1-6.1-20.2l-0.2-0.6c-0.3-1-0.6-1.6-1.1-1.8c-0.3-0.1-0.5-0.1-0.6,0c-0.4,0.1-0.8,0.6-1.2,1.4l-13.2,24.7
				c-1.9,3.6-2.6,4.5-3.5,4.3c-0.6-0.1-1.4-0.5-1.9-0.7c-0.3-0.2-0.7-0.3-1-0.2c-0.5,0.2-0.6,0.7-0.5,1c0.1,0.4,0.5,0.6,1,0.9
				l3.9,1.9l0.7,0.3l1.1,0.6l4,2.2c0.6,0.3,1,0.4,1.3,0.3c0.5-0.1,0.6-0.6,0.5-1c-0.1-0.3-0.3-0.5-0.8-0.7c-0.5-0.3-1.3-0.7-1.9-1.3
				c-0.6-0.7-0.3-2.2,1-4.9l8.1-17l0.1,0.5c1,3.7,2.5,9.2,4.2,14.3l2.7,8.5l3.3,10.3c0.2,0.8,0.5,1.6,1.2,1.9c0.1,0,0.2,0,0.3,0
				c0.8,0,1.4-1.1,1.5-1.3l14.1-26.3C246,490.7,246.6,490.4,247.5,490.5"/>
			<path class="st0" d="M289.6,500.7l-3.7-0.9l-0.8-0.2l-5.5-1.7c-0.6-0.2-1.1-0.3-1.5,0c0,0-0.4,0.3-0.4,0.7c0,0.7,0.7,0.8,1,0.9
				c0.5,0.1,1.6,0.4,2.2,0.9c0.5,0.4,0.7,0.8,0.7,1.5c0,0.5-0.1,1.3-0.4,2.5v0.2c-0.4,1.8-4,15.9-4.9,19.6c-0.6-1.2-1.9-3.5-2-3.7
				l-4.8-8.8c-4.6-7.9-9.4-17.2-10.1-18.5l-0.3-0.6c-0.4-0.8-0.7-1.3-1.2-1.5c-1-0.3-1.4,1.1-1.6,1.7l-7.8,26.9
				c-1,3.6-1.6,4.9-2.5,4.9c-0.5,0-1.2-0.1-2-0.3c-0.3-0.1-1.1-0.3-1.4,0.3c-0.1,0.1-0.2,0.4-0.1,0.7c0.1,0.4,0.5,0.6,1.2,0.8
				l4.9,1.2l5.6,1.7c0.6,0.2,1.1,0.3,1.5-0.1c0.3-0.3,0.3-0.6,0.2-0.8c-0.2-0.5-0.8-0.7-0.9-0.7c-0.7-0.2-1.5-0.5-2.1-0.9
				c-0.7-0.5-0.7-2.1,0-5l4.5-18.3l0.3,0.5c1.2,2.4,4.1,8,7,13.1l4.3,7.6l5.5,9.5c0.3,0.6,0.8,1.3,1.4,1.6l0.2,0.1l0,0
				c0.3,0,0.6-0.1,0.8-0.3c0.2-0.2,0.4-0.6,0.6-1.3l8.4-28.7c0.8-2.6,1.3-3.1,2.2-3.1l1.4,0.2c0.6,0.1,1,0,1.2-0.2
				c0.3-0.3,0.2-0.6,0.2-0.7C290.8,501.1,290.2,500.9,289.6,500.7"/>
			<path class="st0" d="M366.4,145v-0.1V145l4,1.5l0.8,0.3l5.4,2.3c0.4,0.1,1.4,0.5,1.8-0.3c0.1-0.2,0.1-0.4,0-0.6
				c-0.2-0.4-0.8-0.6-0.9-0.7c-0.6-0.2-1.4-0.6-2-1.1c-0.7-0.6-0.5-2.2,0.5-5l6.5-17.7l0.2,0.5c1,2.5,3.2,8.4,5.5,13.8l3.5,8.1
				l4.4,10c0.3,0.7,0.7,1.5,1.4,1.8h0.6h0.1c0.4-0.2,0.7-0.6,1-1.4l11.5-27.6c1-2.5,1.7-2.9,2.6-2.8l1.3,0.4
				c0.5,0.2,0.9,0.2,1.2,0.1l0.2-0.1l0.3-0.8l-0.1-0.1c-0.1-0.4-0.5-0.6-1.1-0.8l-3.6-1.3l-0.8-0.3l-5.3-2.2
				c-0.6-0.2-1.6-0.6-1.9,0.2c0,0.1-0.1,0.2-0.1,0.3c0,0.6,0.7,0.9,0.9,1c0.7,0.3,1.6,0.6,2.1,1.1c0.4,0.4,0.5,0.7,0.5,1.3
				s-0.2,1.5-0.7,2.8c-1.4,3.8-6,16.2-7.1,19.1c-0.3-0.6-0.7-1.8-1.5-3.7l-3.9-9.4c-3.2-7.3-6.3-15.2-7.9-19.2l-0.3-0.9
				c-0.3-0.8-0.5-1.4-1.1-1.7c-0.2-0.1-0.5-0.1-0.7,0c-0.5,0.2-0.8,0.9-1.1,1.5l-10.7,25.9c-1.5,3.8-2.1,4.7-3,4.6
				c-0.5,0-1.1-0.2-1.9-0.5c-1-0.4-1.3,0-1.4,0.3C365.1,144.5,366,144.8,366.4,145"/>
			<path class="st0" d="M425.1,335.7H425C425.1,335.7,425.1,335.7,425.1,335.7"/>
			<path class="st0" d="M477.9,285.7c-10.8-20.2-35.4-13.9-38.9-12.5c-11.5,4.4-17.4,14.9-18.3,26.2c-10.2-13.9-6.1-31.7-6-32.9
				c0.4-2.9,0.7-7.3,0.4-9.1c0.8-0.3,3.3-1.5,5.1-3.2c9.4-9.7,0.3-12.3-4.1-6.9c0.5-7.2-3.3-4.3-5.4-3.5c-0.2-5.1-3.8-2.4-4.6-1.1
				c-2.2-7.6-8.1-1.5-9.7,1.1c-9.6-2.6-10.9,1.6-11,1.5c4.3,1.4,4.8,2.2,4.9,3.3c0.1,1.3-2,3.1-4.9,3.2c0.1,0.4,5.6,2.1,7.7-0.8
				c2.3-3.1,0.3-5.3,0-5.3c2.4,0.2,4.4,0.6,6.4,1.3c8,2.6,10.6,3.8,11,11.1c0.2,3.5-0.7,7.8-1.2,10.3c-1.3,6.3-1.1,17.3,0,23
				c1.7,8.7,11.8,26,15.8,17.9c1.7-3.5,2.5-11.5,5.5-19.6c3.6-9.6,13-15.3,26.5-12.5c19.7,5.5,19.4,21.5,17.9,25.1
				c0,0,0.3-11.6-10-15.1c2.2,4.6,3,13.8,0.8,20.8c0.9-6.6-3.3-16.1-15.7-18.9c9.2,16.7,1.2,38,0.4,38.8c14.8-12,7.2-29.5,7.2-29.5
				s7.7,7.5,3.3,23.9c12-8.2,8.9-27.7,9-27.6c2.8,4.9,3.4,8,2.3,17c0-0.2,2.4-0.1,5.8-10.1C481.3,291.7,477.9,285.7,477.9,285.7z"/>
			<path class="st0" d="M420.6,344.1c8-0.3,15.6-4.3,19.3-7.2c-14.2,3.8-25.8,1.7-31.1-0.5c-9.4-3.9-19.7-17.8-21.3-20.6
				c-3.4-5.6-4.9-17.3-2.2-27.7c2-8.1,9.2-24.6,9.6-28.6c0.5-3.7-3.2-4.8-3.5-5.1c0,0-0.1,0-0.2,0c-13.5,5.3-11.1,14.2-6.5,13.7
				c0.1,0.9-0.2,3.2,2,3.9c-0.8,2.5-7.9,14.8-8.4,23.6c-1.2,22.7,10.5,31.7,13.1,35.4c5.7,8.1-0.7,13.8-3.7,14.5s-5.3,0.8-7.8,0.1
				c-2-0.6-4.9-1.7-6.9-1.6c-3.6,0.1-5.2,2.7-6.1,4.5c0,0,3.5-0.2,6.3,0.1c2.8,0.3,3,0.4,3.9,0.7c0,2.9-0.4,4.5-0.7,5.4
				s-0.1,1.8-0.1,1.8c2.7-0.7,5.9-2.9,6.3-5.9c5.4,0.8,7.8,0.9,11,2.8c0-1.1,1.1-3.2,2.4-4.4c1.9-1.7,8.3-3.3,8.4-3.2
				c9.2,7.1,4.7,27,4.2,27.9s-2.3,1.6-6,1c-0.6,0.5-1.2,0.4-1.9,1.8c-2.9-0.3-8.5-1.1-11.9,0.2c-4.8,1.8-9.6,6.2-10.6,8
				c-0.4,0.7-1.5,2.5-0.2,3.2c1.1,0.5,6.3,0.3,8.9,0.3c2.2,0,34.5,0,37.2-0.1c6.2-0.1,13-1,13.7-1.2c1.7-0.5,1.4-1.3,1.4-1.3
				c0-0.6-2.6-5.6-9.9-6.3c-8.1-1.5-14-1.4-14.4-1.7c0.9-1,2.5-2,2.7-3c0.3-1.4-0.1-10.3,0.2-14
				C418.5,350.9,419.6,347.8,420.6,344.1"/>
			<path class="st0" d="M235.2,331.7c-6.4,3.8-18.8,9-18.8,9c-4.5-0.1-13.1-9.6-16.6-17.4s-3.7-26-3.7-31h60.8
				c0,0-10.6,3.3-12.5,15.7C242.6,320.3,246.7,324.9,235.2,331.7z M207.3,354.5c2.5-7.5,24.7-14.6,31.2-18
				c5.2,15.8-25.2,13.9-27.2,30C205.3,359.7,207.3,354.5,207.3,354.5z M161.5,290.9c-0.7-4.8-0.1-13.5,7.5-18.8
				c8.3-5.8,21.5-6.7,30.1-4.4c4.2,1.1,3.2,2.7,2.1,2.5c-7.8-1.5-14.9-1.1-22.3,2.1c-14.5,6.2-15.8,24.5,3.4,29.4
				c0.7,2.8,0.8,3.5,1.7,6.9C167,307.7,162.1,295.7,161.5,290.9z M267.9,287c-1.3-3.5-93.8-1.6-93.8-1.6s2.5-16,28.1-11.3
				c10.3,1.9,13.1,7,29,6.9c0.9,0,1.1-1.7,0.3-1.8c-4.8-0.8-4.4-2.7-3.8-3.6c0.7-1.4,4.8,0.8,6,0.5c0.3-0.1,0.6-0.9,0.8-1.6
				c0.1-0.4-0.2-0.9-0.6-1.1c-8.3-4.9-13-5.5-19.3-4.3c-2.5,0.5-10.4-2.8-13.3-3.7c-11-3.4-26.5-3-34.7,2.7
				c-10.1,7-17.2,20.3-6.6,36.2c4.5,6.7,13.6,9.6,25.3,10.7c5,22.7,20.7,28,23.8,29.4c0.1,0-5.9,2.9-7.9,7.7
				c-0.7,1.7-2.8,11.6,8.7,19c-1.1,4.4-5.3,7.8-9.5,9.1c-2.7,0.9-5,0.8-6.8,2.4c-1.3,1.3-1.5,5-1.5,5.2c16.8,0,33.3,0,50.1,0
				c0.5-3.1-0.5-5.4-4-6.4c-4.9-1.8-4.8-0.9-9.5-4.6c-5.1-3.3-4.5-17.4-4.3-19c0.7-1.3,12.3-4.8,16.2-10.1c3.9-5.3,3-9.8,1.6-13.4
				c10.4-7.4,8-22.8,8.8-26.5c1.4-6.4,4.3-8.1,9.2-10c2.7-1,6.7-0.6,7.7-1.6C269.2,295.5,269.3,288.6,267.9,287"/>
		</g>
		<path class="st0" d="M331,350.6c-0.1-3.6-0.1-4.3-0.1-8.6c17.1-6.2,26.8-12.9,29.5-23.5c7.6-30.1-26.8-35.4-30.2-36.4
			c-0.1-2.3-0.1-3.9-0.1-5.6c21.7-6.7,28.9-17.8,27.8-29.4c-0.5-5.4-2.1-17.5-29.5-24.4c-0.5-17.4-1.4-23.7-3.4-26.8
			s-4.5-4.1-6.5-4.1c-6.3-0.2-8.8,8.4-9.8,16.1v0.1c-0.4,3.2-0.8,7-1,11.4c-2.7-0.6-5-1.1-7.6-3.1c-3.4-2.6-1.8-6.6-0.3-8.7
			c6.5-7.3,9.1-16.7,9.2-19.7s0.1-4.4-0.8-7.1c-0.8-2.3-2-3.3-3.4-3.9c0.6-1.2,0.9-2.3,1.6-3.1c3-2.9,2.4-2,7.3-7.5
			c0.4-0.8-0.4-1.1-0.8-0.7c-2.3,2.2-5.6,3.5-6.3,3.8c-2.8,1.1-0.8-4-0.3-7.2c0.1-0.8-0.7-0.7-1-0.3c-1.4,2.3-1.9,3.6-2.9,7.7
			c-0.8,3,1.2,4-0.4,6.6c-1.3,0-2.1,0-3.6,0.7c-3.4,1.5-15,11.5-12.6,23.3c1.1,3.7-2.5,9.5-3.2,12.5c-3.7,15.2,12.6,25.6,24.5,27.9
			c0,0.1,0,0.2,0,0.3c-0.1,2.7-0.2,4.8-0.3,10c-15.8,3.6-24.3,9.1-28.8,17.8c-2.7,5.2-3.1,14,0,19.3c6.1,10.5,15.6,14.4,27.4,19.5
			c0,2.3-0.3,10.9-0.3,10.9c-13,3.5-24.5,7.5-30.3,17c-3.8,6.1-2.6,17.3,1.1,23.3c4.8,7.7,13.1,12.2,27.9,16.9
			c-0.1,2.4-0.1,8.7-0.3,10.3c-9.5,2.9-15.2,8.6-17,15.6c-3.6,14.8,6.4,22.4,16.2,27.3l-0.5,23.1c-0.2,3.6-0.3,7.1-0.2,10.3
			c0.1,1.1,1,3.5,6.6,4.8c4.4,1,6.9,1.1,12.5,0.9c5.4-0.2,10.2-1.6,11.5-4.3c0.5-1,0.3-2.5,0.4-3.7l-0.5-32.5l-0.6-22.5
			c11.8-3,25.7-8.8,28.9-19.9C366.5,364.4,348.2,355.3,331,350.6z M317.6,205.2c0.2-4.7,4.5-5.2,4.8-1c0.8,10.4,1,23,1.3,43.4
			c-2.8,0.8-6.7,1.4-6.7,1.4S317,211.5,317.6,205.2z M288.4,213.4c1.7-7.5,3.2-10.6,2.7-13.2c-1.9-9.5,6.6-16.2,8.4-17.5
			c1.7-1.2,3.8-0.9,4.4,0.5c1.4,3.2,0.6,10.4-8,21.8c-1.9,2.5-8.8,15.3,11.5,19.7c-0.1,3.5-0.2,6.3-0.3,9.7
			C295.5,232.2,286.4,222.2,288.4,213.4z M285.2,275.3c0-13.5,27.5-17.7,39.9-20.3c10.7-2.2,10.5-14.1,3.8-17.4c0,0-0.3-5.5-0.3-9.3
			c10.6,2.1,19.2,7.1,22.2,13.3c3.9,8.1-0.7,18.3-10.3,23.8c-8.6,4.9-22.3,6.6-30.5,8s-10.2,9.6-4.2,12.1c0,3-0.3,7.4-0.4,10.9
			C294.8,293.5,285.2,287.3,285.2,275.3z M324.8,314.6l-8,1.4v-36.6l7.3-1.6L324.8,314.6z M281.7,344.8c0-18.3,44.7-22.9,44.6-23
			c11.1-1.5,12.8-16.4,4.3-19.3c0-3.8-0.3-8.5-0.3-13.5c9.8,1.9,24.7,8.2,24.7,20c0,10.7-5.4,17-16.3,21.5
			c-9.2,3.7-20.2,5.8-30.7,8.6c-9.8,2.6-7.1,11.1-3.7,13.1c0,0-0.2,8.8-0.4,12.2C295.9,363.2,281.7,358.7,281.7,344.8z M325.7,381.5
			l-8.9,1.5v-37.7l8.4-2.1L325.7,381.5z M315.5,455l0.4-47l9.9-1.6c0,0,0.6,45.9,0.6,48.4C326.4,456.9,315.3,457.6,315.5,455z
			 M348.9,390.9c-4.4,4-16.3,7.7-32.2,9.9c-12.2,1.7-14.8,7.1-13.8,10.3c-0.1,2.3-0.2,6-0.3,8.4c-3.4-1.7-9.2-6.8-8.7-12.9
			c1.3-16.3,18.6-15.6,33.7-18.4c15.1-2.5,15.3-18.6,3.6-21.3c0-3.5-0.1-6.8-0.1-10c13.4,2.7,18.9,7.5,22.1,13
			C357.9,377.7,355.4,385,348.9,390.9z"/>
	</g>
	<rect class="st1" width="1269.9" height="639"/>
</g>
</svg>
