<?xml version="1.0" encoding="utf-8"?><svg width="100%" height="100%" viewBox="0 0 293 178" version="1.1" xmlns="http://www.w3.org/2000/svg" xmlns:xlink="http://www.w3.org/1999/xlink" xml:space="preserve" style="fill-rule:evenodd;clip-rule:evenodd;stroke-linejoin:round;stroke-miterlimit:1.41421;"><rect x="4.242" y="164.544" width="2.458" height="12.782" style="fill:#0047b9;fill-rule:nonzero;"/><path d="M20.798,164.544l-2.383,0l0,3.979c0,1.57 0.037,3.845 0.133,5.128c-0.471,-0.962 -0.987,-2.02 -1.571,-3.008l-3.553,-6.099l-3.2,0l0,12.782l2.379,0l0,-4.566c0,-1.529 -0.033,-3.537 -0.104,-4.637c0.371,0.833 0.812,1.779 1.375,2.745l3.741,6.458l3.183,0l0,-12.782Z" style="fill:#0047b9;fill-rule:nonzero;"/><path d="M36.032,164.544l-9.082,0l0,2.104l3.316,0l0,10.678l2.458,0l0,-10.678l3.308,0l0,-2.104Z" style="fill:#0047b9;fill-rule:nonzero;"/><path d="M48.3,164.544l-2.458,0l0,5.112l-5.412,0l0,-5.112l-2.454,0l0,12.782l2.454,0l0,-5.545l5.412,0l0,5.545l2.458,0l0,-12.782Z" style="fill:#0047b9;fill-rule:nonzero;"/><path d="M58.786,175.224l-4.482,0l0,-3.462l4.253,0l0,-2.012l-4.253,0l0,-3.141l4.482,0l0,-2.063l-6.94,0l0,12.782l6.94,0l0,-2.104Z" style="fill:#0047b9;fill-rule:nonzero;"/><path d="M96.659,175.167l-4.137,0l0,-10.624l-2.462,0l0,12.782l6.599,0l0,-2.158Z" style="fill:#0047b9;fill-rule:nonzero;"/><path d="M111.463,164.544l-2.862,0l-2.191,6.607c-0.321,0.946 -0.529,1.667 -0.717,2.654l-0.037,0c-0.167,-0.912 -0.396,-1.779 -0.7,-2.691l-2.137,-6.57l-2.875,0l-1.962,12.782l2.495,0l0.717,-5.891c0.15,-1.113 0.283,-2.121 0.358,-3.258l0.038,0c0.154,1.029 0.47,2.179 0.812,3.22l1.95,5.929l2.441,0l2.021,-6.42c0.325,-1.004 0.529,-1.913 0.7,-2.729l0.041,0c0.092,0.891 0.204,1.841 0.396,3.054l0.904,6.095l2.591,0l-1.983,-12.782Z" style="fill:#0047b9;fill-rule:nonzero;"/><path d="M138.111,170.946c0,3.07 -1.774,4.357 -3.441,4.357c-2.287,0 -3.345,-1.766 -3.345,-4.474c0,-2.875 1.62,-4.274 3.383,-4.274c2.191,0 3.403,1.549 3.403,4.391M140.74,170.758c0,-4.378 -2.399,-6.424 -5.803,-6.424c-3.425,0 -6.241,2.541 -6.241,6.762c0,3.962 1.912,6.436 5.803,6.436c3.462,0 6.241,-2.549 6.241,-6.774" style="fill:#0047b9;"/><path d="M168.24,175.057l-2.763,0c-1.566,0 -2.437,0 -2.758,0.038c0.225,-0.304 0.4,-0.592 0.588,-0.896l4.862,-7.687l0,-1.97l-8.245,0l0,2.216l2.945,0c1.267,0 1.871,-0.016 2.329,-0.037c-0.304,0.4 -0.566,0.779 -0.833,1.212l-4.595,7.499l0,1.892l8.47,0l0,-2.267Z" style="fill:#0047b9;fill-rule:nonzero;"/><path d="M178.255,172.762l1.154,-3.258c0.246,-0.737 0.45,-1.475 0.6,-2.137l0.025,0c0.146,0.717 0.342,1.341 0.584,2.046l1.191,3.349l-3.554,0ZM181.505,164.546l-2.779,0l-4.462,12.778l2.479,0l0.887,-2.608l4.825,0l0.887,2.608l2.725,0l-4.562,-12.778Z" style="fill:#0047b9;"/><path d="M195.311,173.37c0,-3.995 -5.374,-3.145 -5.374,-5.436c0,-0.909 0.725,-1.55 2.141,-1.55c0.775,0 1.567,0.129 2.287,0.337l0.134,-2.158c-0.759,-0.129 -1.588,-0.225 -2.308,-0.225c-3.062,0 -4.858,1.575 -4.858,3.841c0,4.2 5.349,3.087 5.349,5.529c0,1.179 -0.966,1.687 -2.212,1.687c-0.925,0 -1.95,-0.208 -2.662,-0.454l-0.158,2.291c0.799,0.209 1.703,0.304 2.608,0.304c3.145,0 5.053,-1.762 5.053,-4.166" style="fill:#0047b9;fill-rule:nonzero;"/><path d="M230.155,174.73c-0.667,0.304 -1.7,0.529 -2.475,0.529c-2.575,0 -3.729,-1.554 -3.729,-4.337c0,-2.474 1.175,-4.274 3.558,-4.274c0.867,0 1.733,0.133 2.571,0.379l0.262,-2.237c-0.829,-0.225 -1.791,-0.342 -2.699,-0.342c-4.275,0 -6.395,2.846 -6.395,6.895c0,3.183 1.437,6.158 5.899,6.158c1.191,0 2.341,-0.234 3.291,-0.575l-0.283,-2.196Z" style="fill:#0047b9;fill-rule:nonzero;"/><path d="M14.663,152.978c-0.846,0.387 -2.167,0.67 -3.158,0.67c-3.275,0 -4.741,-1.974 -4.741,-5.516c0,-3.158 1.491,-5.449 4.524,-5.449c1.108,0 2.216,0.171 3.275,0.483l0.337,-2.849c-1.058,-0.288 -2.287,-0.429 -3.437,-0.429c-5.449,0 -8.145,3.616 -8.145,8.773c0,4.05 1.833,7.837 7.516,7.837c1.516,0 2.983,-0.292 4.191,-0.725l-0.362,-2.795Z" style="fill:#000;fill-rule:nonzero;"/><path d="M131.123,151.241c0,-5.087 -6.836,-4.003 -6.836,-6.924c0,-1.154 0.912,-1.975 2.72,-1.975c0.987,0 1.996,0.171 2.916,0.434l0.163,-2.746c-0.963,-0.171 -2.021,-0.287 -2.937,-0.287c-3.9,0 -6.187,1.995 -6.187,4.895c0,5.349 6.816,3.929 6.816,7.036c0,1.496 -1.229,2.146 -2.821,2.146c-1.174,0 -2.478,-0.267 -3.391,-0.579l-0.196,2.92c1.013,0.263 2.171,0.384 3.325,0.384c3.995,0 6.428,-2.242 6.428,-5.304" style="fill:#000;fill-rule:nonzero;"/><path d="M202.083,140.006l-3.133,0l0,6.511l-6.882,0l0,-6.511l-3.133,0l0,16.277l3.133,0l0,-7.066l6.882,0l0,7.066l3.133,0l0,-16.277Z" style="fill:#000;fill-rule:nonzero;"/><path d="M264.41,140.006l-11.557,0l0,2.678l4.217,0l0,13.599l3.128,0l0,-13.599l4.212,0l0,-2.678Z" style="fill:#000;fill-rule:nonzero;"/><path d="M16.973,115.399c-1.395,-0.412 -2.987,-0.7 -4.599,-0.7c-5.637,0 -9.103,3.641 -9.103,8.753c0,4.966 3.058,8.003 8.215,8.003c1.95,0 3.946,-0.358 5.558,-1.012l0,-7.766l-3.129,0l0,5.67c-0.625,0.196 -1.304,0.288 -2.074,0.288c-3.3,0 -5.175,-2.025 -5.175,-5.474c0,-3.642 2.312,-5.666 5.512,-5.666c1.521,0 3.012,0.316 4.312,0.82l0.483,-2.916Z" style="fill:#000;fill-rule:nonzero;"/><path d="M29.394,128.54l-5.707,0l0,-4.416l5.42,0l0,-2.554l-5.42,0l0,-4.003l5.707,0l0,-2.625l-8.836,0l0,16.273l8.836,0l0,-2.675Z" style="fill:#000;fill-rule:nonzero;"/><path d="M39.944,119.738c0,1.52 -1.158,2.483 -3.037,2.483c-0.483,0 -0.913,-0.021 -1.129,-0.046l0,-4.704c0.312,-0.045 0.771,-0.07 1.229,-0.07c1.97,0 2.937,0.77 2.937,2.337M40.402,125.741c-0.408,-0.554 -0.871,-1.179 -1.325,-1.783c2.454,-0.387 4.142,-2.125 4.142,-4.533c0,-3.324 -2.313,-4.578 -5.904,-4.578c-1.875,0 -3.391,0.021 -4.666,0.096l0,16.272l3.129,0l0,-6.732l0.116,0l4.529,6.732l3.883,0l-3.904,-5.474Z" style="fill:#000;"/><path d="M62.768,114.941l-3.637,0l-2.795,8.411c-0.409,1.204 -0.667,2.125 -0.913,3.379l-0.05,0c-0.216,-1.158 -0.504,-2.266 -0.887,-3.425l-2.725,-8.365l-3.658,0l-2.504,16.273l3.183,0l0.913,-7.495c0.191,-1.425 0.362,-2.704 0.454,-4.15l0.05,0c0.196,1.304 0.604,2.775 1.037,4.1l2.483,7.545l3.1,0l2.574,-8.174c0.413,-1.275 0.675,-2.433 0.896,-3.471l0.046,0c0.121,1.134 0.267,2.338 0.508,3.883l1.158,7.762l3.292,0l-2.525,-16.273Z" style="fill:#000;fill-rule:nonzero;"/><path d="M71.483,125.406l1.47,-4.15c0.309,-0.937 0.575,-1.883 0.771,-2.724l0.021,0c0.196,0.916 0.433,1.716 0.75,2.604l1.512,4.27l-4.524,0ZM75.624,114.941l-3.537,0l-5.683,16.277l3.154,0l1.129,-3.329l6.141,0l1.129,3.329l3.466,0l-5.799,-16.277Z" style="fill:#000;"/><path d="M96.815,114.941l-3.033,0l0,5.066c0,2 0.046,4.887 0.171,6.532c-0.604,-1.233 -1.254,-2.578 -2,-3.837l-4.529,-7.761l-4.07,0l0,16.273l3.037,0l0,-5.808c0,-1.954 -0.046,-4.508 -0.146,-5.907c0.484,1.058 1.038,2.266 1.763,3.495l4.762,8.22l4.045,0l0,-16.273Z" style="fill:#000;fill-rule:nonzero;"/><path d="M69.647,83.337l-39.241,0c-0.15,0 -30.667,-1.233 -30.404,-31.629c0.32,-36.267 46.964,-29.113 46.964,-29.113l0,-21.618l22.681,0l0,82.36ZM46.954,65.327c0,0 -25.155,6.778 -25.155,-12.653c0,-19.901 25.155,-12.732 25.155,-12.732l0,25.385Z" style="fill:#0047b9;"/><path d="M260.817,68.296c0,-8.632 6.991,-15.631 15.611,-15.631c8.624,0 15.61,6.999 15.61,15.631c0,8.632 -6.986,15.627 -15.61,15.627c-8.62,0 -15.611,-6.995 -15.611,-15.627" style="fill:#0047b9;fill-rule:nonzero;"/><path d="M229.779,67.466l26.617,0l0,15.865l-62.25,0l28.576,-44.786l-26.526,0l0,-16.594l60.188,0l-26.605,45.515Z" style="fill:#0047b9;fill-rule:nonzero;"/><path d="M121.083,83.331l-24.072,-27.005l0,27.005l-23.076,0l0,-82.356l23.076,0l0,40.978l19.693,-20.002l28.888,0l-25.542,26.147l30.521,35.233l-29.488,0Z" style="fill:#0047b9;fill-rule:nonzero;"/><path d="M192.001,21.951c0,0.017 -10.515,0.009 -10.503,-0.004c0,0 0.121,-8.403 10.778,-7.94l0,-12.111c-33.562,-9.545 -34.591,20.055 -34.591,20.055l-6.47,0.009c-0.017,-0.021 -16.036,16.585 -16.036,16.585l21.86,0l0.008,44.786l23.726,0c0.042,0 0,-44.782 0,-44.782l11.228,-0.004l0,-16.594Z" style="fill:#0047b9;fill-rule:nonzero;"/><path d="M72.981,153.604l-5.707,0l0,-4.416l5.42,0l0,-2.554l-5.42,0l0,-3.999l5.707,0l0,-2.629l-8.836,0l0,16.273l8.836,0l0,-2.675Z" style="fill:#000;fill-rule:nonzero;"/><path d="M118.433,153.604l-5.708,0l0,-4.416l5.42,0l0,-2.554l-5.42,0l0,-3.999l5.708,0l0,-2.629l-8.837,0l0,16.273l8.837,0l0,-2.675Z" style="fill:#000;fill-rule:nonzero;"/><path d="M142.849,153.604l-5.708,0l0,-4.416l5.42,0l0,-2.554l-5.42,0l0,-3.999l5.708,0l0,-2.629l-8.837,0l0,16.273l8.837,0l0,-2.675Z" style="fill:#000;fill-rule:nonzero;"/><path d="M234,153.604l-5.707,0l0,-4.416l5.42,0l0,-2.554l-5.42,0l0,-3.999l5.707,0l0,-2.629l-8.836,0l0,16.273l8.836,0l0,-2.675Z" style="fill:#000;fill-rule:nonzero;"/><path d="M275.271,153.604l-5.708,0l0,-4.416l5.42,0l0,-2.554l-5.42,0l0,-3.999l5.708,0l0,-2.629l-8.837,0l0,16.273l8.837,0l0,-2.675Z" style="fill:#000;fill-rule:nonzero;"/><path d="M83.528,144.802c0,1.521 -1.158,2.483 -3.037,2.483c-0.483,0 -0.912,-0.021 -1.129,-0.046l0,-4.699c0.313,-0.05 0.771,-0.075 1.229,-0.075c1.971,0 2.937,0.771 2.937,2.337M83.986,150.805c-0.408,-0.554 -0.87,-1.179 -1.324,-1.783c2.454,-0.387 4.141,-2.124 4.141,-4.532c0,-3.325 -2.312,-4.579 -5.904,-4.579c-1.874,0 -3.391,0.021 -4.666,0.096l0,16.273l3.129,0l0,-6.733l0.117,0l4.532,6.733l3.875,0l-3.9,-5.475Z" style="fill:#000;"/><path d="M102.858,144.806c0,1.52 -1.158,2.483 -3.037,2.483c-0.483,0 -0.912,-0.021 -1.129,-0.046l0,-4.704c0.313,-0.045 0.771,-0.07 1.229,-0.07c1.971,0 2.937,0.77 2.937,2.337M103.316,150.809c-0.408,-0.554 -0.87,-1.179 -1.324,-1.783c2.453,-0.387 4.141,-2.125 4.141,-4.533c0,-3.324 -2.312,-4.578 -5.904,-4.578c-1.874,0 -3.391,0.021 -4.666,0.096l0,16.272l3.129,0l0,-6.732l0.117,0l4.532,6.732l3.879,0l-3.904,-5.474Z" style="fill:#000;"/><path d="M168.547,144.802c0,1.521 -1.158,2.483 -3.037,2.483c-0.483,0 -0.912,-0.021 -1.129,-0.046l0,-4.699c0.312,-0.05 0.771,-0.075 1.229,-0.075c1.971,0 2.937,0.771 2.937,2.337M169.005,150.805c-0.408,-0.554 -0.87,-1.179 -1.324,-1.783c2.453,-0.387 4.141,-2.124 4.141,-4.532c0,-3.325 -2.313,-4.579 -5.904,-4.579c-1.875,0 -3.391,0.021 -4.666,0.096l0,16.273l3.129,0l0,-6.733l0.117,0l4.532,6.733l3.875,0l-3.9,-5.475Z" style="fill:#000;"/><path d="M285.817,144.802c0,1.521 -1.158,2.483 -3.037,2.483c-0.483,0 -0.912,-0.021 -1.129,-0.046l0,-4.699c0.313,-0.05 0.771,-0.075 1.229,-0.075c1.971,0 2.937,0.771 2.937,2.337M286.276,150.805c-0.409,-0.554 -0.871,-1.179 -1.325,-1.783c2.454,-0.387 4.141,-2.124 4.141,-4.532c0,-3.325 -2.312,-4.579 -5.903,-4.579c-1.875,0 -3.392,0.021 -4.666,0.096l0,16.273l3.128,0l0,-6.733l0.117,0l4.533,6.733l3.878,0l-3.903,-5.475Z" style="fill:#000;"/><path d="M21.209,150.474l1.471,-4.149c0.308,-0.938 0.574,-1.879 0.77,-2.725l0.025,0c0.192,0.917 0.429,1.717 0.746,2.604l1.512,4.27l-4.524,0ZM25.35,140.009l-3.537,0l-5.683,16.277l3.154,0l1.129,-3.329l6.141,0l1.129,3.329l3.466,0l-5.799,-16.277Z" style="fill:#000;"/><path d="M149.378,150.474l1.471,-4.149c0.312,-0.938 0.574,-1.879 0.77,-2.725l0.025,0c0.192,0.917 0.429,1.717 0.746,2.604l1.512,4.27l-4.524,0ZM153.519,140.009l-3.537,0l-5.683,16.277l3.154,0l1.129,-3.329l6.141,0l1.129,3.329l3.466,0l-5.799,-16.277Z" style="fill:#000;"/><path d="M46.541,140.01l-3.033,0l0,5.062c0,2.003 0.046,4.891 0.167,6.536c-0.6,-1.233 -1.25,-2.579 -1.995,-3.837l-4.529,-7.761l-4.07,0l0,16.273l3.037,0l0,-5.808c0,-1.954 -0.046,-4.508 -0.146,-5.908c0.483,1.059 1.033,2.267 1.762,3.496l4.762,8.22l4.045,0l0,-16.273Z" style="fill:#000;fill-rule:nonzero;"/><path d="M250.71,140.01l-3.033,0l0,5.062c0,2.003 0.046,4.891 0.167,6.536c-0.6,-1.233 -1.25,-2.579 -1.996,-3.837l-4.528,-7.761l-4.071,0l0,16.273l3.037,0l0,-5.808c0,-1.954 -0.045,-4.508 -0.145,-5.908c0.483,1.059 1.033,2.267 1.762,3.496l4.762,8.22l4.045,0l0,-16.273Z" style="fill:#000;fill-rule:nonzero;"/><path d="M60.702,152.978c-0.846,0.387 -2.166,0.67 -3.154,0.67c-3.278,0 -4.745,-1.974 -4.745,-5.516c0,-3.158 1.492,-5.449 4.524,-5.449c1.109,0 2.217,0.171 3.275,0.483l0.338,-2.849c-1.059,-0.288 -2.288,-0.429 -3.438,-0.429c-5.449,0 -8.144,3.616 -8.144,8.773c0,4.05 1.833,7.837 7.515,7.837c1.517,0 2.983,-0.292 4.191,-0.725l-0.362,-2.795Z" style="fill:#000;fill-rule:nonzero;"/><path d="M185.494,152.978c-0.845,0.387 -2.17,0.67 -3.158,0.67c-3.274,0 -4.741,-1.974 -4.741,-5.516c0,-3.158 1.492,-5.449 4.525,-5.449c1.108,0 2.216,0.171 3.274,0.483l0.338,-2.849c-1.058,-0.288 -2.287,-0.429 -3.437,-0.429c-5.449,0 -8.145,3.616 -8.145,8.773c0,4.05 1.833,7.837 7.516,7.837c1.516,0 2.983,-0.292 4.191,-0.725l-0.363,-2.795Z" style="fill:#000;fill-rule:nonzero;"/><path d="M221.726,152.978c-0.845,0.387 -2.17,0.67 -3.153,0.67c-3.279,0 -4.746,-1.974 -4.746,-5.516c0,-3.158 1.492,-5.449 4.525,-5.449c1.108,0 2.216,0.171 3.274,0.483l0.338,-2.849c-1.058,-0.288 -2.287,-0.429 -3.437,-0.429c-5.45,0 -8.145,3.616 -8.145,8.773c0,4.05 1.833,7.837 7.516,7.837c1.516,0 2.983,-0.292 4.191,-0.725l-0.363,-2.795Z" style="fill:#000;fill-rule:nonzero;"/><rect x="233.211" y="164.544" width="2.458" height="12.782" style="fill:#0047b9;fill-rule:nonzero;"/><rect x="259.806" y="164.544" width="2.458" height="12.782" style="fill:#0047b9;fill-rule:nonzero;"/><path d="M289.822,164.544l-2.383,0l0,3.979c0,1.57 0.037,3.845 0.133,5.128c-0.471,-0.962 -0.987,-2.02 -1.57,-3.008l-3.554,-6.099l-3.2,0l0,12.782l2.379,0l0,-4.566c0,-1.529 -0.033,-3.537 -0.104,-4.637c0.371,0.833 0.812,1.779 1.375,2.745l3.741,6.458l3.183,0l0,-12.782Z" style="fill:#0047b9;fill-rule:nonzero;"/><path d="M158.337,164.544l-9.082,0l0,2.104l3.316,0l0,10.678l2.458,0l0,-10.678l3.308,0l0,-2.104Z" style="fill:#0047b9;fill-rule:nonzero;"/><path d="M257.862,164.544l-9.083,0l0,2.104l3.317,0l0,10.678l2.458,0l0,-10.678l3.308,0l0,-2.104Z" style="fill:#0047b9;fill-rule:nonzero;"/><path d="M76.665,164.544l-2.458,0l0,5.112l-5.411,0l0,-5.112l-2.454,0l0,12.782l2.454,0l0,-5.55l5.411,0l0,5.55l2.458,0l0,-12.782Z" style="fill:#0047b9;fill-rule:nonzero;"/><path d="M126.211,164.544l-2.458,0l0,5.112l-5.412,0l0,-5.112l-2.454,0l0,12.782l2.454,0l0,-5.55l5.412,0l0,5.55l2.458,0l0,-12.782Z" style="fill:#0047b9;fill-rule:nonzero;"/><path d="M87.151,175.224l-4.482,0l0,-3.462l4.253,0l0,-2.012l-4.253,0l0,-3.141l4.482,0l0,-2.063l-6.94,0l0,12.782l6.94,0l0,-2.104Z" style="fill:#0047b9;fill-rule:nonzero;"/><path d="M149.812,175.167l-4.137,0l0,-10.624l-2.462,0l0,12.782l6.599,0l0,-2.158Z" style="fill:#0047b9;fill-rule:nonzero;"/><path d="M216.694,170.946c0,3.066 -1.775,4.354 -3.441,4.354c-2.287,0 -3.346,-1.763 -3.346,-4.475c0,-2.874 1.621,-4.27 3.383,-4.27c2.192,0 3.404,1.55 3.404,4.391M219.327,170.759c0,-4.379 -2.404,-6.425 -5.808,-6.425c-3.424,0 -6.24,2.542 -6.24,6.762c0,3.962 1.912,6.437 5.803,6.437c3.462,0 6.245,-2.55 6.245,-6.774" style="fill:#0047b9;"/><path d="M274.145,170.946c0,3.066 -1.774,4.354 -3.441,4.354c-2.287,0 -3.345,-1.763 -3.345,-4.475c0,-2.874 1.62,-4.27 3.383,-4.27c2.191,0 3.403,1.55 3.403,4.391M276.778,170.759c0,-4.379 -2.404,-6.425 -5.807,-6.425c-3.425,0 -6.241,2.542 -6.241,6.762c0,3.962 1.912,6.437 5.803,6.437c3.462,0 6.245,-2.55 6.245,-6.774" style="fill:#0047b9;"/><path d="M241.525,172.762l1.154,-3.258c0.246,-0.737 0.45,-1.475 0.6,-2.137l0.025,0c0.146,0.717 0.342,1.341 0.584,2.046l1.191,3.349l-3.554,0ZM244.775,164.546l-2.779,0l-4.462,12.778l2.479,0l0.887,-2.608l4.825,0l0.887,2.608l2.725,0l-4.562,-12.778Z" style="fill:#0047b9;"/><path d="M205.35,173.37c0,-3.995 -5.374,-3.145 -5.374,-5.436c0,-0.909 0.725,-1.55 2.141,-1.55c0.775,0 1.567,0.129 2.287,0.337l0.134,-2.158c-0.758,-0.129 -1.588,-0.225 -2.308,-0.225c-3.062,0 -4.858,1.575 -4.858,3.841c0,4.2 5.349,3.087 5.349,5.529c0,1.179 -0.966,1.687 -2.212,1.687c-0.925,0 -1.95,-0.208 -2.662,-0.454l-0.158,2.291c0.8,0.209 1.704,0.304 2.608,0.304c3.145,0 5.053,-1.762 5.053,-4.166" style="fill:#0047b9;fill-rule:nonzero;"/></svg>
